<?xml version="1.0" encoding="UTF-8" standalone="no"?>
<!-- Created with Inkscape (http://www.inkscape.org/) -->

<svg
   width="512"
   height="512"
   viewBox="0 0 135.46666 135.46667"
   version="1.1"
   id="svg1"
   inkscape:version="1.4.2 (ebf0e940d0, 2025-05-08)"
   sodipodi:docname="E001.svg"
   xmlns:inkscape="http://www.inkscape.org/namespaces/inkscape"
   xmlns:sodipodi="http://sodipodi.sourceforge.net/DTD/sodipodi-0.dtd"
   xmlns="http://www.w3.org/2000/svg"
   xmlns:svg="http://www.w3.org/2000/svg">
  <sodipodi:namedview
     id="namedview1"
     pagecolor="#ffffff"
     bordercolor="#000000"
     borderopacity="0.25"
     inkscape:showpageshadow="2"
     inkscape:pageopacity="0.0"
     inkscape:pagecheckerboard="0"
     inkscape:deskcolor="#d1d1d1"
     inkscape:document-units="mm"
     inkscape:zoom="1.0478516"
     inkscape:cx="205.18173"
     inkscape:cy="265.30474"
     inkscape:window-width="1175"
     inkscape:window-height="1052"
     inkscape:window-x="0"
     inkscape:window-y="26"
     inkscape:window-maximized="1"
     inkscape:current-layer="layer1" />
  <defs
     id="defs1">
    <rect
       x="161.81329"
       y="185.60937"
       width="295.0713"
       height="244.07972"
       id="rect3" />
  </defs>
  <g
     inkscape:label="Layer 1"
     inkscape:groupmode="layer"
     id="layer1">
    <circle
       style="fill:none;stroke-width:6.18900002;fill-opacity:1;stroke:#000000;stroke-opacity:1;stroke-dasharray:none"
       id="path1"
       cx="67.73333"
       cy="67.73333"
       r="62.330837" />
    <g
       id="text3"
       style="opacity:1"
       transform="matrix(0.56322283,0,0,0.56322283,-56.845301,-95.508623)">
      <path
         style="font-size:192px;font-family:Arial;-inkscape-font-specification:Arial;baseline-shift:baseline;white-space:pre;display:inline;overflow:visible;vector-effect:none;enable-background:accumulate;stop-color:#000000;stop-opacity:1"
         d="m 175.875,358.55422 v -137.4375 h 51.5625 q 15.75,0 25.21875,4.21875 9.5625,4.125 14.90625,12.84375 5.4375,8.625 5.4375,18.09375 0,8.8125 -4.78125,16.59375 -4.78125,7.78125 -14.4375,12.5625 12.46875,3.65625 19.125,12.46875 6.75,8.8125 6.75,20.8125 0,9.65625 -4.125,18 -4.03125,8.25 -10.03125,12.75 -6,4.5 -15.09375,6.84375 -9,2.25 -22.125,2.25 z m 18.1875,-79.6875 h 29.71875 q 12.09375,0 17.34375,-1.59375 6.9375,-2.0625 10.40625,-6.84375 3.5625,-4.78125 3.5625,-12 0,-6.84375 -3.28125,-12 -3.28125,-5.25 -9.375,-7.125 -6.09375,-1.96875 -20.90625,-1.96875 H 194.0625 Z m 0,63.46875 h 34.21875 q 8.8125,0 12.375,-0.65625 6.28125,-1.125 10.5,-3.75 4.21875,-2.625 6.9375,-7.59375 2.71875,-5.0625 2.71875,-11.625 0,-7.6875 -3.9375,-13.3125 -3.9375,-5.71875 -10.96875,-7.96875 -6.9375,-2.34375 -20.0625,-2.34375 H 194.0625 Z"
         id="path2" />
      <path
         style="font-size:192px;font-family:Arial;-inkscape-font-specification:Arial;baseline-shift:baseline;white-space:pre;display:inline;overflow:visible;vector-effect:none;enable-background:accumulate;stop-color:#000000;stop-opacity:1"
         d="m 173.81641,219.05859 v 141.55274 h 54.46484 c 8.8676,0 16.39664,-0.75346 22.625,-2.31055 l 0.006,-0.002 0.008,-0.002 c 6.26482,-1.61464 11.55241,-3.99291 15.81445,-7.18945 4.30595,-3.22946 7.84697,-7.7649 10.64649,-13.49414 2.88666,-5.8426 4.33398,-12.17544 4.33398,-18.90234 0,-8.3843 -2.4014,-15.82828 -7.17382,-22.06055 -3.90342,-5.16432 -9.30136,-8.99632 -15.9043,-11.62695 4.79703,-3.00347 8.633,-6.68119 11.33594,-11.08008 3.36892,-5.48275 5.08593,-11.42274 5.08593,-17.66992 0,-6.70279 -1.94789,-13.14708 -5.75,-19.18164 -3.77079,-6.14692 -9.10718,-10.74065 -15.83007,-13.64258 -6.69796,-2.98068 -15.36504,-4.39063 -26.04102,-4.39063 z m 4.11718,4.11524 h 49.50391 c 10.31625,0 18.45582,1.40115 24.38086,4.04101 l 0.0117,0.006 0.0117,0.004 c 6.01881,2.59635 10.61453,6.55981 13.96679,12.0293 l 0.006,0.0117 0.008,0.0117 c 3.44381,5.46261 5.11914,11.07753 5.11914,16.9961 0,5.50281 -1.47049,10.62337 -4.47657,15.51562 -2.96241,4.82118 -7.43695,8.74643 -13.59765,11.79688 l -4.71875,2.33593 5.05468,1.48243 c 7.97898,2.3397 13.91304,6.2433 18.06055,11.73437 l 0.004,0.006 0.006,0.004 c 4.2258,5.51701 6.32422,11.94836 6.32422,19.5625 0,6.14446 -1.30189,11.80812 -3.91211,17.08789 l -0.002,0.004 -0.002,0.004 c -2.57548,5.27076 -5.72196,9.23728 -9.41602,12.00781 -3.73795,2.80347 -8.51286,4.98574 -14.37304,6.4961 -5.76963,1.44092 -12.98496,2.18554 -21.61133,2.18554 h -50.34766 z m 14.07032,12.10351 v 45.64649 h 31.77734 c 8.15185,0 14.01916,-0.49189 17.93945,-1.68164 h 0.002 c 4.93651,-1.46986 8.84829,-3.9962 11.45898,-7.58399 l 0.004,-0.006 c 2.66863,-3.58447 3.96679,-8.07432 3.96679,-13.22265 0,-4.89044 -1.19361,-9.31859 -3.60156,-13.10352 -2.42987,-3.8815 -6.02625,-6.60418 -10.49414,-7.98242 -4.52708,-1.46 -11.56697,-2.06641 -21.52539,-2.06641 z m 4.11718,4.11524 h 25.41016 c 9.78382,0 16.67512,0.7066 20.27344,1.86914 l 0.0137,0.006 0.0137,0.004 c 3.64572,1.12176 6.29198,3.14022 8.23438,6.24805 l 0.006,0.008 0.004,0.006 c 1.9661,3.08958 2.95899,6.66288 2.95899,10.89649 0,4.47396 -1.07578,7.97994 -3.1543,10.76953 l -0.008,0.0117 -0.008,0.01 c -2.01215,2.77351 -5.02773,4.80217 -9.32617,6.08008 l -0.006,0.002 -0.006,0.002 c -3.0797,0.93491 -8.77399,1.5039 -16.74609,1.5039 h -27.66016 z m -4.11718,53.63476 v 51.36524 h 36.27734 c 5.92041,0 10.06569,-0.19626 12.73828,-0.6875 l 0.01,-0.002 c 4.37776,-0.7851 8.12776,-2.10649 11.21484,-4.02734 3.13866,-1.95294 5.69989,-4.77972 7.6543,-8.35156 l 0.004,-0.008 0.004,-0.008 c 1.98787,-3.70154 2.96484,-7.93846 2.96484,-12.59765 0,-5.47636 -1.43297,-10.38137 -4.31054,-14.49219 -2.87138,-4.16429 -6.95287,-7.11741 -11.9961,-8.73828 l -0.004,-0.002 c -4.99753,-1.68764 -11.84636,-2.45118 -20.7168,-2.45118 z m 4.11718,4.11524 h 29.72266 c 8.6275,0 15.15213,0.79978 19.4043,2.23633 l 0.0156,0.006 0.0156,0.004 c 4.31167,1.37974 7.52838,3.73072 9.90039,7.17578 l 0.004,0.008 0.006,0.006 c 2.37243,3.38918 3.56446,7.35918 3.56446,12.13282 0,4.08841 -0.83547,7.59732 -2.47071,10.64453 -1.6697,3.04845 -3.73099,5.28066 -6.21484,6.82617 -2.53548,1.57763 -5.78261,2.75753 -9.77539,3.47266 h -0.004 l -0.006,0.002 c -2.07767,0.38273 -6.17803,0.62109 -12.00195,0.62109 h -32.16016 z"
         id="path3" />
    </g>
  </g>
</svg>
