<?xml version="1.0" encoding="UTF-8" standalone="no"?>
<!-- Created with Inkscape (http://www.inkscape.org/) -->

<svg
   width="512"
   height="512"
   viewBox="0 0 135.46666 135.46667"
   version="1.1"
   id="svg1"
   inkscape:version="1.4.2 (ebf0e940d0, 2025-05-08)"
   sodipodi:docname="E005.svg"
   xmlns:inkscape="http://www.inkscape.org/namespaces/inkscape"
   xmlns:sodipodi="http://sodipodi.sourceforge.net/DTD/sodipodi-0.dtd"
   xmlns="http://www.w3.org/2000/svg"
   xmlns:svg="http://www.w3.org/2000/svg">
  <sodipodi:namedview
     id="namedview1"
     pagecolor="#ffffff"
     bordercolor="#000000"
     borderopacity="0.25"
     inkscape:showpageshadow="2"
     inkscape:pageopacity="0.0"
     inkscape:pagecheckerboard="0"
     inkscape:deskcolor="#d1d1d1"
     inkscape:document-units="mm"
     inkscape:zoom="1.0478516"
     inkscape:cx="205.18173"
     inkscape:cy="198.50139"
     inkscape:window-width="1175"
     inkscape:window-height="1052"
     inkscape:window-x="0"
     inkscape:window-y="26"
     inkscape:window-maximized="1"
     inkscape:current-layer="layer1" />
  <defs
     id="defs1">
    <rect
       x="161.81329"
       y="185.60937"
       width="295.0713"
       height="244.07972"
       id="rect3" />
  </defs>
  <g
     inkscape:label="Layer 1"
     inkscape:groupmode="layer"
     id="layer1">
    <path
       style="baseline-shift:baseline;display:inline;overflow:visible;vector-effect:none;enable-background:accumulate;stop-color:#000000;stop-opacity:1;opacity:1"
       d="M 8.9882813,31.892578 V 106.84766 H 126.39648 l -0.31054,-2.34375 c 0,0 -2.35877,-17.824906 -10.14453,-35.761723 C 112.04852,59.773779 106.79603,50.734131 99.664062,43.833984 92.532092,36.933838 83.419227,32.200439 72.240234,32.154297 Z m 4.1406247,4.15625 59.09375,0.244141 c 10.035013,0.04142 18.00411,4.170414 24.5625,10.515625 6.558394,6.345211 11.605444,14.933744 15.359374,23.582031 6.69644,15.427221 8.90212,29.15038 9.38086,32.316405 H 13.128906 Z"
       id="path4" />
    <g
       id="text4"
       style="opacity:1">
      <path
         style="font-size:50.8px;font-family:Arial;-inkscape-font-specification:Arial;baseline-shift:baseline;display:inline;overflow:visible;vector-effect:none;enable-background:accumulate;stop-color:#000000;stop-opacity:1"
         d="M 44.963373,87.552139 V 51.188468 h 16.123046 q 4.861719,0 7.391797,0.992187 2.530078,0.967383 4.043164,3.447852 1.513086,2.480469 1.513086,5.481836 0,3.869531 -2.505273,6.523633 -2.505274,2.654101 -7.739063,3.373437 1.909961,0.917773 2.902149,1.810742 2.108398,1.934766 3.993554,4.836914 l 6.325196,9.89707 H 70.958685 L 66.146576,79.98671 q -2.108399,-3.274219 -3.472657,-5.010547 -1.364257,-1.736328 -2.455664,-2.430859 -1.066601,-0.694532 -2.182812,-0.967383 -0.818555,-0.173633 -2.678906,-0.173633 h -5.581055 v 16.147851 z m 4.812109,-20.315038 h 10.343555 q 3.299023,0 5.159375,-0.669727 1.860351,-0.694531 2.827734,-2.182812 0.967383,-1.513086 0.967383,-3.274219 0,-2.579688 -1.885157,-4.241602 -1.860351,-1.661914 -5.903515,-1.661914 H 49.775482 Z"
         id="path1" />
      <path
         style="font-size:50.8px;font-family:Arial;-inkscape-font-specification:Arial;baseline-shift:baseline;display:inline;overflow:visible;vector-effect:none;enable-background:accumulate;stop-color:#000000;stop-opacity:1"
         d="m 43.21875,49.443359 v 39.853516 h 8.300781 V 73.148437 h 3.837891 c 1.169958,0 1.990717,0.07509 2.285156,0.134766 0.530101,0.132237 1.065041,0.361256 1.623047,0.724609 l 0.0078,0.0039 0.0078,0.0059 c 0.449844,0.286264 1.181793,0.96841 2.021484,2.037109 0.85012,1.08197 1.988086,2.720124 3.376953,4.876954 L 70,89.296875 h 10.195312 l -8.042968,-12.585938 -0.0039,-0.0059 c -1.2847,-1.977763 -2.671114,-3.639191 -4.15625,-5.025391 1.888987,-0.67486 3.57407,-1.543932 4.804688,-2.847656 1.960671,-2.077147 2.982422,-4.766485 2.982422,-7.722656 0,-2.294064 -0.597909,-4.46798 -1.769531,-6.388672 -1.179741,-1.934001 -2.861164,-3.384139 -4.900391,-4.166016 -2.039555,-0.798605 -4.666473,-1.111328 -8.023438,-1.111328 z m 3.488281,3.490235 h 14.378906 c 3.122473,0 5.422712,0.348291 6.75586,0.871093 l 0.0059,0.002 0.0078,0.0039 c 1.330493,0.508718 2.339666,1.355882 3.175781,2.726562 0.845826,1.3866 1.257812,2.864508 1.257812,4.572266 0,2.203203 -0.649604,3.864517 -2.029296,5.326172 -1.307938,1.385636 -3.467363,2.398487 -6.707032,2.84375 l -4.935547,0.677734 c -0.05844,-0.0157 -0.10923,-0.05986 -0.167968,-0.07422 l -0.02539,-0.0059 -0.02734,-0.0059 C 57.588353,69.699672 56.651929,69.660156 55.357422,69.660156 H 48.03125 v 16.148438 h -1.324219 z m 1.324219,0.529297 v 15.519531 h 12.087891 c 2.317397,0 4.200554,-0.215637 5.75,-0.773438 l 0.0098,-0.0039 0.0098,-0.0039 c 1.529918,-0.57117 2.823863,-1.548582 3.679687,-2.865235 l 0.0039,-0.0059 0.0039,-0.0059 c 0.810381,-1.26752 1.242187,-2.72134 1.242187,-4.214844 0,-2.1423 -0.88343,-4.139169 -2.472656,-5.542969 -1.70832,-1.524109 -4.127926,-2.103515 -7.060547,-2.103515 z m 3.488281,3.488281 h 9.765625 c 2.456421,0 3.968263,0.529122 4.740235,1.21875 l 0.0059,0.0039 0.0039,0.0039 c 0.920901,0.811847 1.292969,1.636791 1.292969,2.931641 0,0.851193 -0.214101,1.579457 -0.689453,2.326172 -0.432099,0.663279 -1.020545,1.138373 -1.962891,1.492187 -0.931837,0.33377 -2.480707,0.564453 -4.55664,0.564453 h -8.59961 z m 9.634766,14.123047 0.01563,0.0098 c -0.003,-0.002 -0.0067,-0.0019 -0.0098,-0.0039 -0.0021,-0.0013 -0.0038,-0.0045 -0.0059,-0.0059 z m 1.21289,1.185547 0.667969,0.320312 c 1.178763,0.566418 2.017289,1.111696 2.486328,1.533203 1.273402,1.170059 2.512326,2.661991 3.701172,4.492188 l -0.0059,-0.01172 4.609375,7.214844 h -1.910156 l -4.300782,-6.761719 -0.002,-0.0039 C 66.19095,76.834173 65.013813,75.131572 64.044922,73.898437 63.476609,73.17513 62.919905,72.777528 62.367187,72.259766 Z"
         id="path2" />
    </g>
  </g>
</svg>
