<?xml version="1.0" encoding="UTF-8" standalone="no"?>
<!-- Created with Inkscape (http://www.inkscape.org/) -->

<svg
   width="512"
   height="512"
   viewBox="0 0 135.46666 135.46667"
   version="1.1"
   id="svg1"
   inkscape:version="1.4.2 (ebf0e940d0, 2025-05-08)"
   sodipodi:docname="E00C.svg"
   xmlns:inkscape="http://www.inkscape.org/namespaces/inkscape"
   xmlns:sodipodi="http://sodipodi.sourceforge.net/DTD/sodipodi-0.dtd"
   xmlns="http://www.w3.org/2000/svg"
   xmlns:svg="http://www.w3.org/2000/svg">
  <sodipodi:namedview
     id="namedview1"
     pagecolor="#ffffff"
     bordercolor="#000000"
     borderopacity="0.25"
     inkscape:showpageshadow="2"
     inkscape:pageopacity="0.0"
     inkscape:pagecheckerboard="0"
     inkscape:deskcolor="#d1d1d1"
     inkscape:document-units="mm"
     inkscape:zoom="0.84285598"
     inkscape:cx="204.6613"
     inkscape:cy="238.47491"
     inkscape:window-width="1175"
     inkscape:window-height="1052"
     inkscape:window-x="0"
     inkscape:window-y="26"
     inkscape:window-maximized="1"
     inkscape:current-layer="layer1"
     showgrid="false">
    <inkscape:grid
       id="grid6"
       units="mm"
       originx="0"
       originy="0"
       spacingx="0.99999995"
       spacingy="1"
       empcolor="#0099e5"
       empopacity="0.30196078"
       color="#0099e5"
       opacity="0.14901961"
       empspacing="5"
       enabled="true"
       visible="false" />
  </sodipodi:namedview>
  <defs
     id="defs1">
    <rect
       x="161.81329"
       y="185.60937"
       width="295.0713"
       height="244.07972"
       id="rect3" />
  </defs>
  <g
     inkscape:label="Layer 1"
     inkscape:groupmode="layer"
     id="layer1">
    <path
       style="baseline-shift:baseline;display:inline;overflow:visible;vector-effect:none;stroke-linejoin:round;enable-background:accumulate;stop-color:#000000;stop-opacity:1;opacity:1"
       d="m 67.732422,32.339844 c -19.556036,0 -35.392578,15.836542 -35.392578,35.392578 0,19.556035 15.836542,35.394528 35.392578,35.394528 19.556035,0 35.394528,-15.838493 35.394528,-35.394528 0,-19.556036 -15.838493,-35.392578 -35.394528,-35.392578 z m 0,5.960937 c 16.357131,0 29.433594,13.074509 29.433594,29.431641 0,16.357131 -13.076463,29.433594 -29.433594,29.433594 -16.357132,0 -29.431641,-13.076463 -29.431641,-29.433594 0,-16.357132 13.074509,-29.431641 29.431641,-29.431641 z"
       id="rect7" />
    <g
       id="path9"
       style="opacity:1">
      <path
         style="baseline-shift:baseline;display:inline;overflow:visible;vector-effect:none;stroke-linecap:round;stroke-linejoin:round;stroke-miterlimit:13.6;paint-order:markers fill stroke;enable-background:accumulate;stop-color:#000000;stop-opacity:1"
         d="m 18.565711,67.73333 a 3.7669542,3.7669542 0 0 1 -3.766954,3.766954 3.7669542,3.7669542 0 0 1 -3.766955,-3.766954 3.7669542,3.7669542 0 0 1 3.766955,-3.766954 3.7669542,3.7669542 0 0 1 3.766954,3.766954 z"
         id="path16" />
      <path
         style="baseline-shift:baseline;display:inline;overflow:visible;vector-effect:none;stroke-linecap:round;stroke-linejoin:round;stroke-miterlimit:13.6;paint-order:markers fill stroke;enable-background:accumulate;stop-color:#000000;stop-opacity:1"
         d="m 14.798828,62.367187 c -2.945136,0 -5.3671872,2.420099 -5.3671874,5.365235 2e-7,2.945136 2.4220514,5.367188 5.3671874,5.367187 2.945135,0 5.367187,-2.422052 5.367188,-5.367187 -10e-7,-2.945135 -2.422053,-5.365234 -5.367188,-5.365235 z m 0,3.199219 c 1.215727,0 2.166016,0.950289 2.166016,2.166016 0,1.215727 -0.950289,2.167969 -2.166016,2.167969 -1.215727,0 -2.167969,-0.952242 -2.167969,-2.167969 0,-1.215727 0.952242,-2.166016 2.167969,-2.166016 z"
         id="path17" />
    </g>
    <g
       id="path9-1"
       style="opacity:1">
      <path
         style="baseline-shift:baseline;display:inline;overflow:visible;vector-effect:none;stroke-linecap:round;stroke-linejoin:round;stroke-miterlimit:13.6;paint-order:markers fill stroke;enable-background:accumulate;stop-color:#000000;stop-opacity:1"
         d="m 35.601238,31.834019 a 3.7669542,3.7669542 0 0 1 -3.766954,3.766954 3.7669542,3.7669542 0 0 1 -3.766954,-3.766954 3.7669542,3.7669542 0 0 1 3.766954,-3.766954 3.7669542,3.7669542 0 0 1 3.766954,3.766954 z"
         id="path14" />
      <path
         style="baseline-shift:baseline;display:inline;overflow:visible;vector-effect:none;stroke-linecap:round;stroke-linejoin:round;stroke-miterlimit:13.6;paint-order:markers fill stroke;enable-background:accumulate;stop-color:#000000;stop-opacity:1"
         d="m 31.833984,26.466797 c -2.945135,0 -5.367187,2.422052 -5.367187,5.367187 0,2.945136 2.422052,5.367188 5.367187,5.367188 2.945136,0 5.367188,-2.422052 5.367188,-5.367188 0,-2.945135 -2.422052,-5.367187 -5.367188,-5.367187 z m 0,3.201172 c 1.215727,0 2.167969,0.950288 2.167969,2.166015 0,1.215727 -0.952242,2.166016 -2.167969,2.166016 -1.215727,0 -2.166015,-0.950289 -2.166015,-2.166016 0,-1.215727 0.950288,-2.166015 2.166015,-2.166015 z"
         id="path15" />
    </g>
    <g
       id="path9-1-7"
       style="opacity:1">
      <path
         style="baseline-shift:baseline;display:inline;overflow:visible;vector-effect:none;stroke-linecap:round;stroke-linejoin:round;stroke-miterlimit:13.6;paint-order:markers fill stroke;enable-background:accumulate;stop-color:#000000;stop-opacity:1"
         d="m 35.601238,103.63268 a 3.7669542,3.7669542 0 0 1 -3.766954,3.76696 3.7669542,3.7669542 0 0 1 -3.766954,-3.76696 3.7669542,3.7669542 0 0 1 3.766954,-3.766951 3.7669542,3.7669542 0 0 1 3.766954,3.766951 z"
         id="path12" />
      <path
         style="baseline-shift:baseline;display:inline;overflow:visible;vector-effect:none;stroke-linecap:round;stroke-linejoin:round;stroke-miterlimit:13.6;paint-order:markers fill stroke;enable-background:accumulate;stop-color:#000000;stop-opacity:1"
         d="m 31.833984,98.265625 c -2.945133,0 -5.367185,2.422055 -5.367187,5.367185 -5e-6,2.94514 2.422049,5.36719 5.367187,5.36719 2.945139,0 5.367192,-2.42205 5.367188,-5.36719 -3e-6,-2.94513 -2.422054,-5.367185 -5.367188,-5.367185 z m 0,3.199215 c 1.215727,0 2.167968,0.95225 2.167969,2.16797 2e-6,1.21573 -0.95224,2.16602 -2.167969,2.16602 -1.215728,0 -2.166017,-0.95029 -2.166015,-2.16602 1e-6,-1.21572 0.950289,-2.16797 2.166015,-2.16797 z"
         id="path13" />
    </g>
    <g
       id="path9-1-7-3"
       style="opacity:1">
      <path
         style="baseline-shift:baseline;display:inline;overflow:visible;vector-effect:none;stroke-linecap:round;stroke-linejoin:round;stroke-miterlimit:13.6;paint-order:markers fill stroke;enable-background:accumulate;stop-color:#000000;stop-opacity:1"
         d="m 107.39936,103.63268 a 3.7669542,3.7669542 0 0 1 -3.76695,3.76696 3.7669542,3.7669542 0 0 1 -3.766956,-3.76696 3.7669542,3.7669542 0 0 1 3.766956,-3.766951 3.7669542,3.7669542 0 0 1 3.76695,3.766951 z"
         id="path10" />
      <path
         style="baseline-shift:baseline;display:inline;overflow:visible;vector-effect:none;stroke-linecap:round;stroke-linejoin:round;stroke-miterlimit:13.6;paint-order:markers fill stroke;enable-background:accumulate;stop-color:#000000;stop-opacity:1"
         d="m 103.63281,98.265625 c -2.94513,-10e-7 -5.367182,2.422055 -5.367185,5.367185 -5e-6,2.94514 2.422045,5.36719 5.367185,5.36719 2.94514,0 5.36719,-2.42205 5.36719,-5.36719 0,-2.94513 -2.42206,-5.367182 -5.36719,-5.367185 z m 0,3.199215 c 1.21573,1e-5 2.16602,0.95225 2.16602,2.16797 0,1.21573 -0.95029,2.16602 -2.16602,2.16602 -1.21573,0 -2.16797,-0.95029 -2.16797,-2.16602 0,-1.21572 0.95225,-2.16797 2.16797,-2.16797 z"
         id="path11" />
    </g>
    <g
       id="path9-1-5"
       style="opacity:1">
      <path
         style="baseline-shift:baseline;display:inline;overflow:visible;vector-effect:none;stroke-linecap:round;stroke-linejoin:round;stroke-miterlimit:13.6;paint-order:markers fill stroke;enable-background:accumulate;stop-color:#000000;stop-opacity:1"
         d="m 107.39936,31.825287 a 3.7669542,3.7669542 0 0 1 -3.76695,3.766954 3.7669542,3.7669542 0 0 1 -3.766956,-3.766954 3.7669542,3.7669542 0 0 1 3.766956,-3.766954 3.7669542,3.7669542 0 0 1 3.76695,3.766954 z"
         id="path7" />
      <path
         style="baseline-shift:baseline;display:inline;overflow:visible;vector-effect:none;stroke-linecap:round;stroke-linejoin:round;stroke-miterlimit:13.6;paint-order:markers fill stroke;enable-background:accumulate;stop-color:#000000;stop-opacity:1"
         d="m 103.63281,26.458984 c -2.94513,-1e-6 -5.367185,2.422051 -5.367185,5.367188 0,2.945136 2.422055,5.365236 5.367185,5.365234 2.94514,-3e-6 5.36719,-2.420101 5.36719,-5.365234 0,-2.945133 -2.42205,-5.367184 -5.36719,-5.367188 z m 0,3.199219 c 1.21573,1e-6 2.16602,0.952243 2.16602,2.167969 0,1.215726 -0.95029,2.166014 -2.16602,2.166015 -1.21573,10e-7 -2.16797,-0.950288 -2.16797,-2.166015 0,-1.215728 0.95224,-2.167969 2.16797,-2.167969 z"
         id="path8" />
    </g>
    <g
       id="path9-7"
       style="opacity:1">
      <path
         style="baseline-shift:baseline;display:inline;overflow:visible;vector-effect:none;stroke-linecap:round;stroke-linejoin:round;stroke-miterlimit:13.6;paint-order:markers fill stroke;enable-background:accumulate;stop-color:#000000;stop-opacity:1"
         d="m 124.43495,67.73333 a 3.7669542,3.7669542 0 0 1 -3.76696,3.766954 3.7669542,3.7669542 0 0 1 -3.76695,-3.766954 3.7669542,3.7669542 0 0 1 3.76695,-3.766954 3.7669542,3.7669542 0 0 1 3.76696,3.766954 z"
         id="path5" />
      <path
         style="baseline-shift:baseline;display:inline;overflow:visible;vector-effect:none;stroke-linecap:round;stroke-linejoin:round;stroke-miterlimit:13.6;paint-order:markers fill stroke;enable-background:accumulate;stop-color:#000000;stop-opacity:1"
         d="m 120.66797,62.367187 c -2.94513,4e-6 -5.36719,2.420102 -5.36719,5.365235 0,2.945133 2.42206,5.367184 5.36719,5.367187 2.94514,5e-6 5.36719,-2.422049 5.36719,-5.367187 0,-2.945139 -2.42205,-5.365239 -5.36719,-5.365235 z m 0,3.199219 c 1.21573,-2e-6 2.16601,0.950287 2.16601,2.166016 0,1.215728 -0.95028,2.16797 -2.16601,2.167969 -1.21573,-2e-6 -2.16602,-0.952243 -2.16602,-2.167969 0,-1.215726 0.95029,-2.166014 2.16602,-2.166016 z"
         id="path6" />
    </g>
    <g
       id="path9-7-6"
       style="opacity:1">
      <path
         style="baseline-shift:baseline;display:inline;overflow:visible;vector-effect:none;stroke-linecap:round;stroke-linejoin:round;stroke-miterlimit:13.6;paint-order:markers fill stroke;enable-background:accumulate;stop-color:#000000;stop-opacity:1"
         d="M 71.500284,14.798954 A 3.7669542,3.7669542 0 0 1 67.73333,18.565908 3.7669542,3.7669542 0 0 1 63.966376,14.798954 3.7669542,3.7669542 0 0 1 67.73333,11.032 a 3.7669542,3.7669542 0 0 1 3.766954,3.766954 z"
         id="path3" />
      <path
         style="baseline-shift:baseline;display:inline;overflow:visible;vector-effect:none;stroke-linecap:round;stroke-linejoin:round;stroke-miterlimit:13.6;paint-order:markers fill stroke;enable-background:accumulate;stop-color:#000000;stop-opacity:1"
         d="m 67.732422,9.4316406 c -2.945135,2e-7 -5.365234,2.4220524 -5.365235,5.3671874 10e-7,2.945135 2.4201,5.367187 5.365235,5.367188 2.945135,-10e-7 5.367187,-2.422053 5.367187,-5.367188 0,-2.945135 -2.422052,-5.3671872 -5.367187,-5.3671874 z m 0,3.2011724 c 1.215727,0 2.167969,0.950288 2.167969,2.166015 0,1.215727 -0.952242,2.167969 -2.167969,2.167969 -1.215727,0 -2.166016,-0.952242 -2.166016,-2.167969 0,-1.215727 0.950289,-2.166015 2.166016,-2.166015 z"
         id="path4" />
    </g>
    <g
       id="path9-7-6-9"
       style="opacity:1">
      <path
         style="baseline-shift:baseline;display:inline;overflow:visible;vector-effect:none;stroke-linecap:round;stroke-linejoin:round;stroke-miterlimit:13.6;paint-order:markers fill stroke;enable-background:accumulate;stop-color:#000000;stop-opacity:1"
         d="m 71.500284,120.66761 a 3.7669542,3.7669542 0 0 1 -3.766954,3.76695 3.7669542,3.7669542 0 0 1 -3.766954,-3.76695 3.7669542,3.7669542 0 0 1 3.766954,-3.76695 3.7669542,3.7669542 0 0 1 3.766954,3.76695 z"
         id="path1" />
      <path
         style="baseline-shift:baseline;display:inline;overflow:visible;vector-effect:none;stroke-linecap:round;stroke-linejoin:round;stroke-miterlimit:13.6;paint-order:markers fill stroke;enable-background:accumulate;stop-color:#000000;stop-opacity:1"
         d="m 67.732422,115.30078 c -2.945133,0 -5.365231,2.42206 -5.365235,5.36719 4e-6,2.94513 2.420102,5.36719 5.365235,5.36719 2.945133,0 5.367184,-2.42206 5.367187,-5.36719 -3e-6,-2.94513 -2.422054,-5.36719 -5.367187,-5.36719 z m 0,3.19922 c 1.215726,0 2.167967,0.95224 2.167969,2.16797 -2e-6,1.21572 -0.952243,2.16601 -2.167969,2.16601 -1.215726,0 -2.166014,-0.95029 -2.166016,-2.16601 2e-6,-1.21573 0.95029,-2.16797 2.166016,-2.16797 z"
         id="path2" />
    </g>
  </g>
</svg>
