<?xml version="1.0" encoding="UTF-8" standalone="no"?>
<!-- Created with Inkscape (http://www.inkscape.org/) -->

<svg
   width="512"
   height="512"
   viewBox="0 0 135.46666 135.46667"
   version="1.1"
   id="svg1"
   inkscape:version="1.4.2 (ebf0e940d0, 2025-05-08)"
   sodipodi:docname="E00E.svg"
   xmlns:inkscape="http://www.inkscape.org/namespaces/inkscape"
   xmlns:sodipodi="http://sodipodi.sourceforge.net/DTD/sodipodi-0.dtd"
   xmlns="http://www.w3.org/2000/svg"
   xmlns:svg="http://www.w3.org/2000/svg">
  <sodipodi:namedview
     id="namedview1"
     pagecolor="#ffffff"
     bordercolor="#000000"
     borderopacity="0.25"
     inkscape:showpageshadow="2"
     inkscape:pageopacity="0.0"
     inkscape:pagecheckerboard="0"
     inkscape:deskcolor="#d1d1d1"
     inkscape:document-units="mm"
     inkscape:zoom="1.2751739"
     inkscape:cx="177.23073"
     inkscape:cy="258.78823"
     inkscape:window-width="1175"
     inkscape:window-height="1052"
     inkscape:window-x="0"
     inkscape:window-y="26"
     inkscape:window-maximized="1"
     inkscape:current-layer="layer1"
     showgrid="false">
    <inkscape:grid
       id="grid6"
       units="mm"
       originx="0"
       originy="0"
       spacingx="0.99999995"
       spacingy="1"
       empcolor="#0099e5"
       empopacity="0.30196078"
       color="#0099e5"
       opacity="0.14901961"
       empspacing="5"
       enabled="true"
       visible="false" />
  </sodipodi:namedview>
  <defs
     id="defs1">
    <rect
       x="161.81329"
       y="185.60937"
       width="295.0713"
       height="244.07972"
       id="rect3" />
  </defs>
  <g
     inkscape:label="Layer 1"
     inkscape:groupmode="layer"
     id="layer1">
    <g
       id="path13"
       style="opacity:1">
      <path
         style="baseline-shift:baseline;display:inline;overflow:visible;vector-effect:none;stroke-linecap:round;stroke-linejoin:round;stroke-miterlimit:13.6;paint-order:markers stroke fill;enable-background:accumulate;stop-color:#000000;stop-opacity:1"
         d="m 65.214844,9.7109375 a 3.6928694,3.6928694 0 0 0 -3.69336,3.6933595 v 7.068359 C 37.488147,23.232159 18.69546,41.345605 18.695312,63.689453 a 3.6928694,3.6928694 0 0 0 3.691407,3.693359 h 39.134765 v 46.109378 a 3.6928694,3.6928694 0 0 0 3.69336,3.69336 h 5.283203 a 3.6928694,3.6928694 0 0 0 3.691406,-3.69336 V 67.382812 h 38.890627 a 3.6928694,3.6928694 0 0 0 3.6914,-3.693359 C 116.7715,41.432011 98.117227,23.356666 74.189453,20.5 V 13.404297 A 3.6928694,3.6928694 0 0 0 70.498047,9.7109375 Z m 2.630859,16.5371095 a 3.6928694,3.6928694 0 0 0 2.453125,1.132812 c 20.761873,1.120402 36.644462,15.272932 38.681642,32.617188 H 70.498047 a 3.6928694,3.6928694 0 0 0 -2.642578,1.152344 3.6928694,3.6928694 0 0 0 -2.640625,-1.152344 H 26.488281 c 2.045664,-17.41651 18.05114,-31.60169 38.908203,-32.626953 a 3.6928694,3.6928694 0 0 0 2.449219,-1.123047 z"
         id="path3" />
      <path
         style="baseline-shift:baseline;display:inline;overflow:visible;vector-effect:none;stroke-linecap:round;stroke-linejoin:round;stroke-miterlimit:13.6;paint-order:markers stroke fill;enable-background:accumulate;stop-color:#000000;stop-opacity:1"
         d="m 65.214624,13.403833 v 10.278442 a 45.346062,40.069469 0 0 0 -42.82736,40.007378 h 42.82736 v 49.803157 h 5.282882 V 63.689653 H 113.0794 A 45.346062,40.069469 0 0 0 70.497506,23.694678 V 13.403833 Z"
         id="path4" />
    </g>
    <g
       id="path14"
       style="opacity:1">
      <path
         style="baseline-shift:baseline;display:inline;overflow:visible;vector-effect:none;stroke-linecap:round;stroke-linejoin:round;stroke-miterlimit:13.6;paint-order:markers stroke fill;enable-background:accumulate;stop-color:#000000;stop-opacity:1"
         d="m 70.287109,104.44922 a 1.7256575,1.7256575 0 0 0 -1.726562,1.72656 v 9.29883 a 1.7256575,1.7256575 0 0 0 1.726562,1.72461 c 6.06824,0 11.023443,-4.9552 11.023438,-11.02344 a 1.7256575,1.7256575 0 0 0 -1.72461,-1.72656 z m 1.72461,3.45117 h 5.501953 c -0.658051,2.76722 -2.734697,4.84593 -5.501953,5.50391 z"
         id="path1" />
      <path
         style="baseline-shift:baseline;display:inline;overflow:visible;vector-effect:none;stroke-linecap:round;stroke-linejoin:round;stroke-miterlimit:13.6;paint-order:markers stroke fill;enable-background:accumulate;stop-color:#000000;stop-opacity:1"
         d="m 79.585648,106.17548 a 9.2990341,9.2990322 0 0 1 -9.299035,9.29904 v -9.29904 z"
         id="path2" />
    </g>
  </g>
</svg>
