<?xml version="1.0" encoding="UTF-8" standalone="no"?>
<!-- Created with Inkscape (http://www.inkscape.org/) -->

<svg
   width="512"
   height="512"
   viewBox="0 0 135.46666 135.46667"
   version="1.1"
   id="svg1"
   inkscape:version="1.4.2 (ebf0e940d0, 2025-05-08)"
   sodipodi:docname="E010.svg"
   xmlns:inkscape="http://www.inkscape.org/namespaces/inkscape"
   xmlns:sodipodi="http://sodipodi.sourceforge.net/DTD/sodipodi-0.dtd"
   xmlns="http://www.w3.org/2000/svg"
   xmlns:svg="http://www.w3.org/2000/svg">
  <sodipodi:namedview
     id="namedview1"
     pagecolor="#ffffff"
     bordercolor="#000000"
     borderopacity="0.25"
     inkscape:showpageshadow="2"
     inkscape:pageopacity="0.0"
     inkscape:pagecheckerboard="0"
     inkscape:deskcolor="#d1d1d1"
     inkscape:document-units="mm"
     inkscape:zoom="0.63758695"
     inkscape:cx="288.58809"
     inkscape:cy="197.6201"
     inkscape:window-width="1175"
     inkscape:window-height="1052"
     inkscape:window-x="0"
     inkscape:window-y="26"
     inkscape:window-maximized="1"
     inkscape:current-layer="layer1"
     showgrid="false">
    <inkscape:grid
       id="grid6"
       units="mm"
       originx="0"
       originy="0"
       spacingx="0.99999995"
       spacingy="1"
       empcolor="#0099e5"
       empopacity="0.30196078"
       color="#0099e5"
       opacity="0.14901961"
       empspacing="5"
       enabled="true"
       visible="false" />
  </sodipodi:namedview>
  <defs
     id="defs1">
    <rect
       x="161.81329"
       y="185.60937"
       width="295.0713"
       height="244.07972"
       id="rect3" />
  </defs>
  <g
     inkscape:label="Layer 1"
     inkscape:groupmode="layer"
     id="layer1">
    <g
       id="rect15"
       style="opacity:1">
      <path
         style="baseline-shift:baseline;display:inline;overflow:visible;vector-effect:none;stroke-linecap:round;stroke-linejoin:round;stroke-miterlimit:13.6;paint-order:markers stroke fill;enable-background:accumulate;stop-color:#000000;stop-opacity:1"
         d="m 16.898437,14.404297 a 2.4952446,2.4952446 0 0 0 -2.49414,2.49414 V 118.56836 a 2.4952446,2.4952446 0 0 0 2.49414,2.49414 H 118.56836 a 2.4952446,2.4952446 0 0 0 2.49414,-2.49414 V 16.898437 a 2.4952446,2.4952446 0 0 0 -2.49414,-2.49414 z m 2.496094,4.990234 H 116.07227 V 116.07227 H 19.394531 Z"
         id="path5" />
      <path
         id="path6"
         style="baseline-shift:baseline;display:inline;overflow:visible;vector-effect:none;stroke-linecap:round;stroke-linejoin:round;stroke-miterlimit:13.6;paint-order:markers stroke fill;enable-background:accumulate;stop-color:#000000;stop-opacity:1"
         d="M 16.89871 16.89871 L 16.89871 118.56796 L 118.56796 118.56796 L 118.56796 16.89871 L 16.89871 16.89871 z " />
    </g>
    <g
       id="rect16"
       style="opacity:1">
      <path
         style="baseline-shift:baseline;display:inline;overflow:visible;vector-effect:none;fill:#ffffff;stroke-linecap:round;stroke-linejoin:round;stroke-miterlimit:13.6;paint-order:markers stroke fill;enable-background:accumulate;stop-color:#000000;stop-opacity:1"
         d="m 63.007812,26.1875 c -2.220498,4.59e-4 -4.020151,1.800986 -4.019531,4.021484 v 46.298828 c 4.58e-4,2.219736 1.799795,4.019073 4.019531,4.019532 h 9.451172 c 2.219736,-4.58e-4 4.019074,-1.799796 4.019532,-4.019532 V 30.208984 c 6.2e-4,-2.220499 -1.799033,-4.021026 -4.019532,-4.021484 z"
         id="path3"
         sodipodi:nodetypes="ccccccccc" />
    </g>
    <g
       id="rect16-0"
       style="opacity:1">
      <path
         style="baseline-shift:baseline;display:inline;overflow:visible;vector-effect:none;fill:#ffffff;stroke-linecap:round;stroke-linejoin:round;stroke-miterlimit:13.6;paint-order:markers stroke fill;enable-background:accumulate;stop-color:#000000;stop-opacity:1"
         d="m 63.007812,91.873047 c -2.219736,4.59e-4 -4.019072,1.799795 -4.019531,4.019531 v 9.990232 c 4.59e-4,2.21974 1.799796,4.01907 4.019531,4.01953 h 9.451172 c 2.219736,-4.6e-4 4.019073,-1.79979 4.019532,-4.01953 v -9.990232 c -4.59e-4,-2.219736 -1.799796,-4.019073 -4.019532,-4.019531 z"
         id="path1"
         sodipodi:nodetypes="ccccccccc" />
    </g>
  </g>
</svg>
