<?xml version="1.0" encoding="UTF-8" standalone="no"?>
<!-- Created with Inkscape (http://www.inkscape.org/) -->

<svg
   width="512"
   height="512"
   viewBox="0 0 135.46666 135.46667"
   version="1.1"
   id="svg1"
   inkscape:version="1.4.2 (ebf0e940d0, 2025-05-08)"
   sodipodi:docname="E015.svg"
   xmlns:inkscape="http://www.inkscape.org/namespaces/inkscape"
   xmlns:sodipodi="http://sodipodi.sourceforge.net/DTD/sodipodi-0.dtd"
   xmlns="http://www.w3.org/2000/svg"
   xmlns:svg="http://www.w3.org/2000/svg">
  <sodipodi:namedview
     id="namedview1"
     pagecolor="#ffffff"
     bordercolor="#000000"
     borderopacity="0.25"
     inkscape:showpageshadow="2"
     inkscape:pageopacity="0.0"
     inkscape:pagecheckerboard="0"
     inkscape:deskcolor="#d1d1d1"
     inkscape:document-units="mm"
     inkscape:zoom="1.2585805"
     inkscape:cx="275.31016"
     inkscape:cy="255.04924"
     inkscape:window-width="1175"
     inkscape:window-height="1052"
     inkscape:window-x="0"
     inkscape:window-y="26"
     inkscape:window-maximized="1"
     inkscape:current-layer="layer1"
     showgrid="false">
    <inkscape:grid
       id="grid6"
       units="mm"
       originx="0"
       originy="0"
       spacingx="0.99999995"
       spacingy="1"
       empcolor="#0099e5"
       empopacity="0.30196078"
       color="#0099e5"
       opacity="0.14901961"
       empspacing="5"
       enabled="true"
       visible="false" />
  </sodipodi:namedview>
  <defs
     id="defs1">
    <inkscape:path-effect
       effect="bspline"
       id="path-effect1"
       is_visible="true"
       lpeversion="1.3"
       weight="33.333333"
       steps="2"
       helper_size="0"
       apply_no_weight="true"
       apply_with_weight="true"
       only_selected="false"
       uniform="false" />
    <rect
       x="161.81329"
       y="185.60937"
       width="295.0713"
       height="244.07972"
       id="rect3" />
    <inkscape:path-effect
       effect="bspline"
       id="path-effect1-2"
       is_visible="true"
       lpeversion="1.3"
       weight="33.333333"
       steps="2"
       helper_size="0"
       apply_no_weight="true"
       apply_with_weight="true"
       only_selected="false"
       uniform="false" />
  </defs>
  <g
     inkscape:label="Layer 1"
     inkscape:groupmode="layer"
     id="layer1">
    <path
       id="path1"
       style="fill:#000000;fill-opacity:1;stroke:none;stroke-width:0;stroke-linecap:round;stroke-miterlimit:13.6;stroke-dasharray:none;paint-order:markers stroke fill"
       d="M 67.733333,9.4464518 C 63.079016,16.653151 58.585564,23.610491 52.995732,30.057597 47.405901,36.504702 41.428418,41.612628 34.140035,47.840491 26.851652,54.068355 18.128298,61.522564 16.552478,72.864286 c -1.57582,11.341722 3.993725,22.008139 12.414229,28.130584 8.420504,6.12243 18.867553,6.65156 24.934912,6.07818 4.673447,-0.44166 6.748208,-2.4795 8.225855,-3.91656 -3.488322,14.64548 -13.113411,18.62781 -13.113412,18.62781 h 37.438542 c 0,0 -9.625231,-3.98228 -13.113411,-18.62832 1.477544,1.43708 3.55179,3.47535 8.225854,3.91707 6.067359,0.57338 16.514413,0.0442 24.934913,-6.07818 8.42051,-6.122445 13.99005,-16.788862 12.41423,-28.130584 C 117.33837,61.522564 108.61502,54.068355 101.32663,47.840491 94.038251,41.612628 88.060766,36.504702 82.470935,30.057597 76.881104,23.610491 72.38765,16.653151 67.733333,9.4464518 Z"
       sodipodi:nodetypes="csssssccccscsssc" />
  </g>
</svg>
