<?xml version="1.0" encoding="UTF-8" standalone="no"?>
<!-- Created with Inkscape (http://www.inkscape.org/) -->

<svg
   width="512"
   height="512"
   viewBox="0 0 135.46666 135.46667"
   version="1.1"
   id="svg1"
   inkscape:version="1.4.2 (ebf0e940d0, 2025-05-08)"
   sodipodi:docname="E018.svg"
   xml:space="preserve"
   xmlns:inkscape="http://www.inkscape.org/namespaces/inkscape"
   xmlns:sodipodi="http://sodipodi.sourceforge.net/DTD/sodipodi-0.dtd"
   xmlns="http://www.w3.org/2000/svg"
   xmlns:svg="http://www.w3.org/2000/svg"><sodipodi:namedview
     id="namedview1"
     pagecolor="#ffffff"
     bordercolor="#000000"
     borderopacity="0.25"
     inkscape:showpageshadow="2"
     inkscape:pageopacity="0.0"
     inkscape:pagecheckerboard="0"
     inkscape:deskcolor="#d1d1d1"
     inkscape:document-units="mm"
     inkscape:zoom="1.4142136"
     inkscape:cx="215.66756"
     inkscape:cy="275.77164"
     inkscape:window-width="1342"
     inkscape:window-height="1052"
     inkscape:window-x="0"
     inkscape:window-y="26"
     inkscape:window-maximized="1"
     inkscape:current-layer="layer1"
     showgrid="false"><inkscape:grid
       id="grid6"
       units="mm"
       originx="0"
       originy="0"
       spacingx="0.99999995"
       spacingy="1"
       empcolor="#0099e5"
       empopacity="0.30196078"
       color="#0099e5"
       opacity="0.14901961"
       empspacing="5"
       enabled="true"
       visible="false" /></sodipodi:namedview><defs
     id="defs1"><inkscape:path-effect
       effect="bspline"
       id="path-effect1"
       is_visible="true"
       lpeversion="1.3"
       weight="33.333333"
       steps="2"
       helper_size="0"
       apply_no_weight="true"
       apply_with_weight="true"
       only_selected="false"
       uniform="false" /><rect
       x="161.81329"
       y="185.60937"
       width="295.0713"
       height="244.07972"
       id="rect3" /><inkscape:path-effect
       effect="bspline"
       id="path-effect1-2"
       is_visible="true"
       lpeversion="1.3"
       weight="33.333333"
       steps="2"
       helper_size="0"
       apply_no_weight="true"
       apply_with_weight="true"
       only_selected="false"
       uniform="false" /></defs><g
     inkscape:label="Layer 1"
     inkscape:groupmode="layer"
     id="layer1"><path
       id="path1"
       style="opacity:1;fill:#000000;fill-opacity:1;stroke:none;stroke-width:0;stroke-linecap:round;stroke-miterlimit:13.6;stroke-dasharray:none;paint-order:markers stroke fill"
       d="m 67.726099,17.650602 c -13.155001,0.03079 -24.854672,10.652682 -24.882719,24.882719 -1.1e-5,3.872917 0.904024,7.69237 2.640149,11.154358 -12.997716,0.806064 -23.126653,11.582531 -23.126754,24.605217 -4.2e-5,13.615359 11.0374,24.652794 24.652759,24.652754 5.571913,7e-5 10.979521,-1.88741 15.341182,-5.354708 -3.279152,15.771178 -13.336654,20.016348 -13.336654,20.016348 h 18.719271 18.719271 c 0,0 -10.05753,-4.24506 -13.336653,-20.016348 4.361661,3.467298 9.769269,5.354778 15.341182,5.354708 13.615357,4e-5 24.652797,-11.037395 24.652757,-24.652754 -10e-6,-13.028143 -10.13709,-23.807221 -23.140705,-24.60625 1.73579,-3.461719 2.639643,-7.280798 2.639633,-11.153325 C 92.608775,28.790993 81.468427,17.650645 67.726099,17.650602 Z"
       sodipodi:nodetypes="cccccccccccccsc" /></g></svg>
