<?xml version="1.0" encoding="UTF-8" standalone="no"?>
<!-- Created with Inkscape (http://www.inkscape.org/) -->

<svg
   width="512"
   height="512"
   viewBox="0 0 135.46666 135.46667"
   version="1.1"
   id="svg1"
   inkscape:version="1.4.2 (ebf0e940d0, 2025-05-08)"
   sodipodi:docname="E01D.svg"
   xml:space="preserve"
   xmlns:inkscape="http://www.inkscape.org/namespaces/inkscape"
   xmlns:sodipodi="http://sodipodi.sourceforge.net/DTD/sodipodi-0.dtd"
   xmlns="http://www.w3.org/2000/svg"
   xmlns:svg="http://www.w3.org/2000/svg"><sodipodi:namedview
     id="namedview1"
     pagecolor="#ffffff"
     bordercolor="#000000"
     borderopacity="0.25"
     inkscape:showpageshadow="2"
     inkscape:pageopacity="0.0"
     inkscape:pagecheckerboard="0"
     inkscape:deskcolor="#d1d1d1"
     inkscape:document-units="mm"
     inkscape:zoom="1.4142136"
     inkscape:cx="286.73179"
     inkscape:cy="292.03509"
     inkscape:window-width="1342"
     inkscape:window-height="1052"
     inkscape:window-x="0"
     inkscape:window-y="26"
     inkscape:window-maximized="1"
     inkscape:current-layer="layer1"
     showgrid="false"><inkscape:grid
       id="grid6"
       units="mm"
       originx="0"
       originy="0"
       spacingx="0.99999995"
       spacingy="1"
       empcolor="#0099e5"
       empopacity="0.30196078"
       color="#0099e5"
       opacity="0.14901961"
       empspacing="5"
       enabled="true"
       visible="false" /></sodipodi:namedview><defs
     id="defs1"><inkscape:path-effect
       effect="bspline"
       id="path-effect1"
       is_visible="true"
       lpeversion="1.3"
       weight="33.333333"
       steps="2"
       helper_size="0"
       apply_no_weight="true"
       apply_with_weight="true"
       only_selected="false"
       uniform="false" /><rect
       x="161.81329"
       y="185.60937"
       width="295.0713"
       height="244.07972"
       id="rect3" /><inkscape:path-effect
       effect="bspline"
       id="path-effect1-2"
       is_visible="true"
       lpeversion="1.3"
       weight="33.333333"
       steps="2"
       helper_size="0"
       apply_no_weight="true"
       apply_with_weight="true"
       only_selected="false"
       uniform="false" /><filter
       inkscape:collect="always"
       style="color-interpolation-filters:sRGB"
       id="filter5-6"
       x="-0.0038414475"
       y="-0.0038414475"
       width="1.0076829"
       height="1.0076829"><feGaussianBlur
         inkscape:collect="always"
         stdDeviation="0.15895052"
         id="feGaussianBlur5-9" /></filter></defs><g
     inkscape:label="Layer 1"
     inkscape:groupmode="layer"
     id="layer1"><path
       style="baseline-shift:baseline;display:inline;overflow:visible;vector-effect:none;stroke-linecap:round;stroke-miterlimit:13.6;paint-order:markers stroke fill;enable-background:accumulate;stop-color:#000000;stop-opacity:1;opacity:1"
       d="m 67.732422,18.080078 c -27.357407,0 -49.652344,22.294937 -49.652344,49.652344 3e-6,27.357405 22.294938,49.654298 49.652344,49.654298 27.357404,0 49.654298,-22.296894 49.654298,-49.654298 0,-27.357406 -22.296893,-49.652341 -49.654298,-49.652344 z m 0,11 c 21.412564,2e-6 38.654298,17.239779 38.654298,38.652344 0,21.412563 -17.241735,38.654298 -38.654298,38.654298 -21.412565,0 -38.652342,-17.241734 -38.652344,-38.654298 0,-21.412566 17.239778,-38.652344 38.652344,-38.652344 z"
       id="path5" /><g
       id="path5-4"
       style="opacity:1;filter:url(#filter5-6)"
       transform="matrix(0.52886076,0,0,0.52886076,31.911833,31.911833)"><path
         style="baseline-shift:baseline;display:inline;overflow:visible;vector-effect:none;stroke-linecap:round;stroke-miterlimit:13.6;paint-order:markers stroke fill;enable-background:accumulate;stop-color:#000000;stop-opacity:1"
         d="m 67.732422,18.080078 c -27.357407,0 -49.652344,22.294937 -49.652344,49.652344 3e-6,27.357405 22.294938,49.654298 49.652344,49.654298 27.357404,0 49.654298,-22.296894 49.654298,-49.654298 0,-27.357406 -22.296893,-49.652341 -49.654298,-49.652344 z m 0,11 c 21.412564,2e-6 38.654298,17.239779 38.654298,38.652344 0,21.412563 -17.241735,38.654298 -38.654298,38.654298 -21.412565,0 -38.652342,-17.241734 -38.652344,-38.654298 0,-21.412566 17.239778,-38.652344 38.652344,-38.652344 z"
         id="path1" /><path
         style="baseline-shift:baseline;display:inline;overflow:visible;vector-effect:none;stroke-linecap:round;stroke-miterlimit:13.6;paint-order:markers stroke fill;enable-background:accumulate;stop-color:#000000;stop-opacity:1"
         d="M 111.88625,67.73333 A 44.152924,44.152924 0 0 1 67.73333,111.88625 44.152924,44.152924 0 0 1 23.580406,67.73333 44.152924,44.152924 0 0 1 67.73333,23.580406 44.152924,44.152924 0 0 1 111.88625,67.73333 Z"
         id="path2" /></g></g></svg>
