<?xml version="1.0" encoding="UTF-8" standalone="no"?>
<!-- Created with Inkscape (http://www.inkscape.org/) -->

<svg
   width="512"
   height="512"
   viewBox="0 0 135.46666 135.46667"
   version="1.1"
   id="svg1"
   inkscape:version="1.4.2 (ebf0e940d0, 2025-05-08)"
   sodipodi:docname="E02A.svg"
   xml:space="preserve"
   xmlns:inkscape="http://www.inkscape.org/namespaces/inkscape"
   xmlns:sodipodi="http://sodipodi.sourceforge.net/DTD/sodipodi-0.dtd"
   xmlns="http://www.w3.org/2000/svg"
   xmlns:svg="http://www.w3.org/2000/svg"><sodipodi:namedview
     id="namedview1"
     pagecolor="#ffffff"
     bordercolor="#000000"
     borderopacity="0.25"
     inkscape:showpageshadow="2"
     inkscape:pageopacity="0.0"
     inkscape:pagecheckerboard="0"
     inkscape:deskcolor="#d1d1d1"
     inkscape:document-units="mm"
     inkscape:zoom="1"
     inkscape:cx="127"
     inkscape:cy="269"
     inkscape:window-width="1534"
     inkscape:window-height="1052"
     inkscape:window-x="0"
     inkscape:window-y="26"
     inkscape:window-maximized="1"
     inkscape:current-layer="layer1"
     showgrid="false"><inkscape:grid
       id="grid6"
       units="mm"
       originx="0"
       originy="0"
       spacingx="0.99999995"
       spacingy="1"
       empcolor="#0099e5"
       empopacity="0.30196078"
       color="#0099e5"
       opacity="0.14901961"
       empspacing="5"
       enabled="true"
       visible="false" /></sodipodi:namedview><defs
     id="defs1"><rect
       x="51.00002"
       y="54.000009"
       width="409.99998"
       height="404"
       id="rect1" /><inkscape:path-effect
       effect="fillet_chamfer"
       id="path-effect7"
       is_visible="true"
       lpeversion="1"
       nodesatellites_param="F,0,0,1,0,1.8173645,0,1 @ F,0,0,1,0,0,0,1 @ F,0,0,1,0,0,0,1 @ F,0,0,1,0,0,0,1 @ F,0,0,1,0,0,0,1 @ F,0,0,1,0,0,0,1 @ F,0,0,1,0,0,0,1 @ F,0,0,1,0,0,0,1 @ F,0,0,1,0,0,0,1 @ F,0,0,1,0,0,0,1 @ F,0,0,1,0,0,0,1 @ F,0,0,1,0,1.7602026,0,1"
       radius="0"
       unit="px"
       method="auto"
       mode="F"
       chamfer_steps="1"
       flexible="false"
       use_knot_distance="true"
       apply_no_radius="true"
       apply_with_radius="true"
       only_selected="false"
       hide_knots="false" /><inkscape:path-effect
       effect="bspline"
       id="path-effect1"
       is_visible="true"
       lpeversion="1.3"
       weight="33.333333"
       steps="2"
       helper_size="0"
       apply_no_weight="true"
       apply_with_weight="true"
       only_selected="false"
       uniform="false" /><rect
       x="161.81329"
       y="185.60937"
       width="295.0713"
       height="244.07972"
       id="rect3" /><inkscape:path-effect
       effect="bspline"
       id="path-effect1-2"
       is_visible="true"
       lpeversion="1.3"
       weight="33.333333"
       steps="2"
       helper_size="0"
       apply_no_weight="true"
       apply_with_weight="true"
       only_selected="false"
       uniform="false" /></defs><g
     inkscape:label="Layer 1"
     inkscape:groupmode="layer"
     id="layer1"><path
       style="baseline-shift:baseline;display:inline;overflow:visible;vector-effect:none;stroke-linecap:round;stroke-linejoin:round;stroke-miterlimit:13.6;paint-order:markers stroke fill;enable-background:accumulate;stop-color:#000000;stop-opacity:1;opacity:1;stroke:none"
       d="M 13.494141,10.732422 A 3.5553556,3.5553556 0 0 0 9.9394531,14.287109 V 121.17969 a 3.5553556,3.5553556 0 0 0 3.5546879,3.55469 H 121.97266 a 3.5553556,3.5553556 0 0 0 3.55468,-3.55469 V 14.287109 a 3.5553556,3.5553556 0 0 0 -3.55468,-3.554687 z m 3.554687,7.109375 H 118.41797 V 117.625 H 17.048828 Z"
       id="rect7" /><text
       xml:space="preserve"
       transform="scale(0.26458333)"
       id="text1"
       style="font-size:192px;font-family:Arial;-inkscape-font-specification:Arial;text-align:start;writing-mode:lr-tb;direction:ltr;white-space:pre;shape-inside:url(#rect1);display:inline;fill:#000000;stroke:none;stroke-width:26.8724;stroke-linecap:round;stroke-linejoin:round;stroke-miterlimit:13.6;stroke-dasharray:none;paint-order:markers stroke fill" /><path
       d="M 39.13457,105.60667 V 29.859992 h 28.41792 q 8.680383,0 13.898947,2.325103 5.270232,2.273433 8.215362,7.078645 2.996799,4.753543 2.996799,9.972107 0,4.856881 -2.635117,9.145403 -2.635116,4.288523 -7.957017,6.923639 6.87197,2.015089 10.540465,6.87197 3.720164,4.856881 3.720164,11.470506 0,5.321901 -2.273434,9.920437 -2.221764,4.546867 -5.528577,7.026978 -3.306812,2.48011 -8.3187,3.77183 -4.960219,1.24006 -12.193871,1.24006 z M 49.158345,61.688063 h 16.379056 q 6.665294,0 9.558755,-0.878372 3.823502,-1.136717 5.735253,-3.771833 1.96342,-2.635117 1.96342,-6.613625 0,-3.771833 -1.808413,-6.613625 -1.808413,-2.893461 -5.166895,-3.92684 Q 72.46104,38.79872 64.297347,38.79872 H 49.158345 Z m 0,34.979876 h 18.859166 q 4.856881,0 6.8203,-0.361683 3.46182,-0.620027 5.786922,-2.066757 2.325103,-1.446731 3.823502,-4.185185 1.4984,-2.790123 1.4984,-6.406949 0,-4.236854 -2.170096,-7.336991 -2.170096,-3.151805 -6.045267,-4.39186 Q 73.90777,70.62679 66.674118,70.62679 H 49.158345 Z"
       id="text2"
       style="font-size:105.818px;font-family:Arial;-inkscape-font-specification:Arial;text-align:center;text-anchor:middle;stroke:none;stroke-width:0;stroke-linecap:round;stroke-linejoin:round;stroke-miterlimit:13.6;paint-order:markers stroke fill"
       aria-label="B" /></g></svg>
