<?xml version="1.0" encoding="UTF-8" standalone="no"?>
<!-- Created with Inkscape (http://www.inkscape.org/) -->

<svg
   width="512"
   height="512"
   viewBox="0 0 135.46666 135.46667"
   version="1.1"
   id="svg1"
   inkscape:version="1.4.2 (ebf0e940d0, 2025-05-08)"
   sodipodi:docname="E02B.svg"
   xml:space="preserve"
   xmlns:inkscape="http://www.inkscape.org/namespaces/inkscape"
   xmlns:sodipodi="http://sodipodi.sourceforge.net/DTD/sodipodi-0.dtd"
   xmlns="http://www.w3.org/2000/svg"
   xmlns:svg="http://www.w3.org/2000/svg"><sodipodi:namedview
     id="namedview1"
     pagecolor="#ffffff"
     bordercolor="#000000"
     borderopacity="0.25"
     inkscape:showpageshadow="2"
     inkscape:pageopacity="0.0"
     inkscape:pagecheckerboard="0"
     inkscape:deskcolor="#d1d1d1"
     inkscape:document-units="mm"
     inkscape:zoom="1"
     inkscape:cx="126.5"
     inkscape:cy="269"
     inkscape:window-width="1175"
     inkscape:window-height="1052"
     inkscape:window-x="0"
     inkscape:window-y="26"
     inkscape:window-maximized="1"
     inkscape:current-layer="layer1"
     showgrid="false"><inkscape:grid
       id="grid6"
       units="mm"
       originx="0"
       originy="0"
       spacingx="0.99999995"
       spacingy="1"
       empcolor="#0099e5"
       empopacity="0.30196078"
       color="#0099e5"
       opacity="0.14901961"
       empspacing="5"
       enabled="true"
       visible="false" /></sodipodi:namedview><defs
     id="defs1"><rect
       x="51.00002"
       y="54.000009"
       width="409.99998"
       height="404"
       id="rect1" /><inkscape:path-effect
       effect="fillet_chamfer"
       id="path-effect7"
       is_visible="true"
       lpeversion="1"
       nodesatellites_param="F,0,0,1,0,1.8173645,0,1 @ F,0,0,1,0,0,0,1 @ F,0,0,1,0,0,0,1 @ F,0,0,1,0,0,0,1 @ F,0,0,1,0,0,0,1 @ F,0,0,1,0,0,0,1 @ F,0,0,1,0,0,0,1 @ F,0,0,1,0,0,0,1 @ F,0,0,1,0,0,0,1 @ F,0,0,1,0,0,0,1 @ F,0,0,1,0,0,0,1 @ F,0,0,1,0,1.7602026,0,1"
       radius="0"
       unit="px"
       method="auto"
       mode="F"
       chamfer_steps="1"
       flexible="false"
       use_knot_distance="true"
       apply_no_radius="true"
       apply_with_radius="true"
       only_selected="false"
       hide_knots="false" /><inkscape:path-effect
       effect="bspline"
       id="path-effect1"
       is_visible="true"
       lpeversion="1.3"
       weight="33.333333"
       steps="2"
       helper_size="0"
       apply_no_weight="true"
       apply_with_weight="true"
       only_selected="false"
       uniform="false" /><rect
       x="161.81329"
       y="185.60937"
       width="295.0713"
       height="244.07972"
       id="rect3" /><inkscape:path-effect
       effect="bspline"
       id="path-effect1-2"
       is_visible="true"
       lpeversion="1.3"
       weight="33.333333"
       steps="2"
       helper_size="0"
       apply_no_weight="true"
       apply_with_weight="true"
       only_selected="false"
       uniform="false" /></defs><g
     inkscape:label="Layer 1"
     inkscape:groupmode="layer"
     id="layer1"><path
       style="baseline-shift:baseline;display:inline;overflow:visible;vector-effect:none;stroke-linecap:round;stroke-linejoin:round;stroke-miterlimit:13.6;paint-order:markers stroke fill;enable-background:accumulate;stop-color:#000000;stop-opacity:1;opacity:1;stroke:none;stroke-opacity:1"
       d="M 13.494141,10.732422 A 3.5553556,3.5553556 0 0 0 9.9394531,14.287109 V 121.17969 a 3.5553556,3.5553556 0 0 0 3.5546879,3.55469 H 121.97266 a 3.5553556,3.5553556 0 0 0 3.55468,-3.55469 V 14.287109 a 3.5553556,3.5553556 0 0 0 -3.55468,-3.554687 z m 3.554687,7.109375 H 118.41797 V 117.625 H 17.048828 Z"
       id="rect7" /><text
       xml:space="preserve"
       transform="scale(0.26458333)"
       id="text1"
       style="font-size:192px;font-family:Arial;-inkscape-font-specification:Arial;text-align:start;writing-mode:lr-tb;direction:ltr;white-space:pre;shape-inside:url(#rect1);display:inline;fill:#000000;stroke:none;stroke-width:26.8724;stroke-linecap:round;stroke-linejoin:round;stroke-miterlimit:13.6;stroke-dasharray:none;paint-order:markers stroke fill;stroke-opacity:1" /><path
       d="m 91.191036,79.048828 10.023774,2.531779 q -3.151804,12.348878 -11.367166,18.859163 -8.163694,6.45862 -19.995882,6.45862 -12.24554,0 -19.944213,-4.96022 -7.647004,-5.011886 -11.677182,-14.467303 -3.978509,-9.455417 -3.978509,-20.305896 0,-11.832189 4.495199,-20.615909 4.546867,-8.83539 12.865567,-13.382257 8.370369,-4.598536 18.394145,-4.598536 11.367168,0 19.11751,5.786921 7.750341,5.786922 10.798809,16.275718 L 90.05432,52.956011 Q 87.419203,44.68898 82.407316,40.917147 77.395428,37.145314 69.800093,37.145314 q -8.732052,0 -14.622312,4.185184 -5.838591,4.185185 -8.215362,11.26383 -2.376772,7.026977 -2.376772,14.518974 0,9.662093 2.790123,16.895745 2.841792,7.181984 8.783721,10.747141 5.941929,3.565157 12.865568,3.565157 8.422038,0 14.260629,-4.856881 5.838591,-4.856881 7.905348,-14.415636 z"
       id="text2"
       style="font-size:105.818px;font-family:Arial;-inkscape-font-specification:Arial;text-align:center;text-anchor:middle;stroke:none;stroke-width:0;stroke-linecap:round;stroke-linejoin:round;stroke-miterlimit:13.6;paint-order:markers stroke fill;stroke-opacity:1"
       aria-label="C" /></g></svg>
