<?xml version="1.0" encoding="UTF-8" standalone="no"?>
<!-- Created with Inkscape (http://www.inkscape.org/) -->

<svg
   width="512"
   height="512"
   viewBox="0 0 135.46666 135.46667"
   version="1.1"
   id="svg1"
   inkscape:version="1.4.2 (ebf0e940d0, 2025-05-08)"
   sodipodi:docname="E040.svg"
   xml:space="preserve"
   xmlns:inkscape="http://www.inkscape.org/namespaces/inkscape"
   xmlns:sodipodi="http://sodipodi.sourceforge.net/DTD/sodipodi-0.dtd"
   xmlns="http://www.w3.org/2000/svg"
   xmlns:svg="http://www.w3.org/2000/svg"><sodipodi:namedview
     id="namedview1"
     pagecolor="#ffffff"
     bordercolor="#000000"
     borderopacity="0.25"
     inkscape:showpageshadow="2"
     inkscape:pageopacity="0.0"
     inkscape:pagecheckerboard="0"
     inkscape:deskcolor="#d1d1d1"
     inkscape:document-units="mm"
     inkscape:zoom="1"
     inkscape:cx="162.5"
     inkscape:cy="276"
     inkscape:window-width="1175"
     inkscape:window-height="1052"
     inkscape:window-x="0"
     inkscape:window-y="26"
     inkscape:window-maximized="1"
     inkscape:current-layer="layer1"
     showgrid="false"><inkscape:grid
       id="grid6"
       units="mm"
       originx="0"
       originy="0"
       spacingx="0.99999995"
       spacingy="1"
       empcolor="#0099e5"
       empopacity="0.30196078"
       color="#0099e5"
       opacity="0.14901961"
       empspacing="5"
       enabled="true"
       visible="false" /></sodipodi:namedview><defs
     id="defs1"><inkscape:path-effect
       effect="fillet_chamfer"
       id="path-effect7"
       is_visible="true"
       lpeversion="1"
       nodesatellites_param="F,0,0,1,0,1.8173645,0,1 @ F,0,0,1,0,0,0,1 @ F,0,0,1,0,0,0,1 @ F,0,0,1,0,0,0,1 @ F,0,0,1,0,0,0,1 @ F,0,0,1,0,0,0,1 @ F,0,0,1,0,0,0,1 @ F,0,0,1,0,0,0,1 @ F,0,0,1,0,0,0,1 @ F,0,0,1,0,0,0,1 @ F,0,0,1,0,0,0,1 @ F,0,0,1,0,1.7602026,0,1"
       radius="0"
       unit="px"
       method="auto"
       mode="F"
       chamfer_steps="1"
       flexible="false"
       use_knot_distance="true"
       apply_no_radius="true"
       apply_with_radius="true"
       only_selected="false"
       hide_knots="false" /><inkscape:path-effect
       effect="bspline"
       id="path-effect1"
       is_visible="true"
       lpeversion="1.3"
       weight="33.333333"
       steps="2"
       helper_size="0"
       apply_no_weight="true"
       apply_with_weight="true"
       only_selected="false"
       uniform="false" /><rect
       x="161.81329"
       y="185.60937"
       width="295.0713"
       height="244.07972"
       id="rect3" /><inkscape:path-effect
       effect="bspline"
       id="path-effect1-2"
       is_visible="true"
       lpeversion="1.3"
       weight="33.333333"
       steps="2"
       helper_size="0"
       apply_no_weight="true"
       apply_with_weight="true"
       only_selected="false"
       uniform="false" /></defs><g
     inkscape:label="Layer 1"
     inkscape:groupmode="layer"
     id="layer1"><path
       style="baseline-shift:baseline;display:inline;overflow:visible;vector-effect:none;stroke-linecap:round;stroke-linejoin:round;stroke-miterlimit:13.6;paint-order:markers stroke fill;enable-background:accumulate;stop-color:#000000;stop-opacity:1;opacity:1;stroke:none"
       d="m 67.732422,11.164063 c -31.212379,-1e-6 -56.56836,25.35598 -56.568359,56.568359 -3e-6,31.21238 25.355979,56.570308 56.568359,56.570308 31.212381,1e-5 56.570318,-25.357927 56.570308,-56.570308 0,-31.21238 -25.357928,-56.568362 -56.570308,-56.568359 z m 0,4.999999 c 28.510179,-2e-6 51.570308,23.058181 51.570308,51.56836 1e-5,28.51018 -23.060128,51.570318 -51.570308,51.570308 -28.510179,0 -51.568362,-23.060129 -51.56836,-51.570308 0,-28.510178 23.058182,-51.56836 51.56836,-51.56836 z"
       id="path2" /><path
       style="baseline-shift:baseline;display:inline;overflow:visible;vector-effect:none;stroke-linecap:round;stroke-linejoin:round;stroke-miterlimit:13.6;paint-order:markers stroke fill;enable-background:accumulate;stop-color:#000000;stop-opacity:1;opacity:1;stroke:none"
       d="m 52.761719,35.367187 c -15.598832,7.273855 -24.065074,24.442667 -20.339844,41.246094 3.725228,16.80343 18.653826,28.785159 35.865234,28.785159 17.211408,0 32.141961,-11.98173 35.867191,-28.785159 3.72523,-16.803427 -4.742968,-33.972239 -20.3418,-41.246094 a 2.499995,2.499995 0 0 0 -3.322266,1.208985 2.499995,2.499995 0 0 0 1.208985,3.322265 c 13.499793,6.295057 20.796211,21.090519 17.572265,35.632813 -3.223947,14.542295 -16.089,24.86719 -30.984375,24.86719 -14.895375,0 -27.760428,-10.324894 -30.984375,-24.86719 C 34.078785,60.988956 41.375207,46.193494 54.875,39.898437 a 2.499995,2.499995 0 0 0 1.208984,-3.322265 2.499995,2.499995 0 0 0 -3.322265,-1.208985 z"
       id="path3" /><path
       style="baseline-shift:baseline;display:inline;overflow:visible;vector-effect:none;stroke-linecap:round;stroke-linejoin:round;stroke-miterlimit:13.6;paint-order:markers stroke fill;enable-background:accumulate;stop-color:#000000;stop-opacity:1;opacity:1;stroke:none"
       d="m 67.732422,25.5625 a 2.499995,2.499995 0 0 0 -2.5,2.5 v 39.669922 a 2.499995,2.499995 0 0 0 2.5,2.5 2.499995,2.499995 0 0 0 2.5,-2.5 V 28.0625 a 2.499995,2.499995 0 0 0 -2.5,-2.5 z"
       id="path4" /></g></svg>
