<?xml version="1.0" encoding="UTF-8" standalone="no"?>
<!-- Created with Inkscape (http://www.inkscape.org/) -->

<svg
   width="512"
   height="512"
   viewBox="0 0 135.46666 135.46667"
   version="1.1"
   id="svg1"
   inkscape:version="1.4.2 (ebf0e940d0, 2025-05-08)"
   sodipodi:docname="E041.svg"
   xmlns:inkscape="http://www.inkscape.org/namespaces/inkscape"
   xmlns:sodipodi="http://sodipodi.sourceforge.net/DTD/sodipodi-0.dtd"
   xmlns="http://www.w3.org/2000/svg"
   xmlns:svg="http://www.w3.org/2000/svg">
  <sodipodi:namedview
     id="namedview1"
     pagecolor="#ffffff"
     bordercolor="#000000"
     borderopacity="0.25"
     inkscape:showpageshadow="2"
     inkscape:pageopacity="0.0"
     inkscape:pagecheckerboard="0"
     inkscape:deskcolor="#d1d1d1"
     inkscape:document-units="mm"
     inkscape:zoom="0.97443657"
     inkscape:cx="52.851054"
     inkscape:cy="185.74837"
     inkscape:window-width="1175"
     inkscape:window-height="1052"
     inkscape:window-x="0"
     inkscape:window-y="26"
     inkscape:window-maximized="1"
     inkscape:current-layer="layer1" />
  <defs
     id="defs1">
    <rect
       x="161.81329"
       y="185.60937"
       width="295.0713"
       height="244.07972"
       id="rect3" />
  </defs>
  <g
     inkscape:label="Layer 1"
     inkscape:groupmode="layer"
     id="layer1">
    <path
       style="baseline-shift:baseline;display:inline;overflow:visible;vector-effect:none;stroke-linejoin:round;enable-background:accumulate;stop-color:#000000;stop-opacity:1;opacity:1;stroke:none"
       d="m 48.417969,10.691406 a 1.7446745,1.7446745 0 0 0 -1.746094,1.744141 V 46.671875 H 12.435547 a 1.7446745,1.7446745 0 0 0 -1.744141,1.746094 v 38.630859 a 1.7446745,1.7446745 0 0 0 1.744141,1.746094 h 34.236328 v 34.236328 a 1.7446745,1.7446745 0 0 0 1.746094,1.74414 h 38.630859 a 1.7446745,1.7446745 0 0 0 1.746094,-1.74414 V 88.794922 h 34.236328 a 1.7446745,1.7446745 0 0 0 1.74414,-1.746094 V 48.417969 a 1.7446745,1.7446745 0 0 0 -1.74414,-1.746094 H 88.794922 V 12.435547 a 1.7446745,1.7446745 0 0 0 -1.746094,-1.744141 z m 1.74414,3.488282 h 35.142578 v 34.238281 a 1.7446745,1.7446745 0 0 0 1.744141,1.74414 H 121.28711 V 85.304687 H 87.048828 a 1.7446745,1.7446745 0 0 0 -1.744141,1.744141 V 121.28711 H 50.162109 V 87.048828 a 1.7446745,1.7446745 0 0 0 -1.74414,-1.744141 H 14.179688 V 50.162109 h 34.238281 a 1.7446745,1.7446745 0 0 0 1.74414,-1.74414 z"
       id="rect5" />
    <path
       id="rect2"
       style="opacity:0.68702;stroke:none;stroke-width:0;stroke-linecap:round;stroke-linejoin:round;stroke-miterlimit:13.6;paint-order:markers stroke fill"
       d="m 23.15167,64.397385 h 24.11289 c 0.620502,0 1.12004,0.499537 1.12004,1.12004 v 4.43181 c 0,0.620502 -0.499538,1.12004 -1.12004,1.12004 H 23.15167 c -0.620503,0 -1.12004,-0.499538 -1.12004,-1.12004 v -4.43181 c 0,-0.620503 0.499537,-1.12004 1.12004,-1.12004 z" />
    <path
       id="rect2-7"
       style="opacity:0.68702;stroke:none;stroke-width:0;stroke-linecap:round;stroke-linejoin:round;stroke-miterlimit:13.6;paint-order:markers stroke fill"
       transform="rotate(90)"
       d="M 23.151629,-71.069275 H 47.26452 c 0.620502,0 1.12004,0.499538 1.12004,1.12004 v 4.43181 c 0,0.620503 -0.499538,1.12004 -1.12004,1.12004 H 23.151629 c -0.620502,0 -1.120039,-0.499537 -1.120039,-1.12004 v -4.43181 c 0,-0.620502 0.499537,-1.12004 1.120039,-1.12004 z" />
    <path
       id="rect2-7-3"
       style="opacity:0.68702;stroke:none;stroke-width:0;stroke-linecap:round;stroke-linejoin:round;stroke-miterlimit:13.6;paint-order:markers stroke fill"
       transform="rotate(90)"
       d="m 88.202086,-71.069275 h 24.112894 c 0.6205,0 1.12004,0.499538 1.12004,1.12004 v 4.43181 c 0,0.620503 -0.49954,1.12004 -1.12004,1.12004 H 88.202086 c -0.620502,0 -1.120039,-0.499537 -1.120039,-1.12004 v -4.43181 c 0,-0.620502 0.499537,-1.12004 1.120039,-1.12004 z" />
    <path
       id="rect2-4"
       style="opacity:0.68702;stroke:none;stroke-width:0;stroke-linecap:round;stroke-linejoin:round;stroke-miterlimit:13.6;paint-order:markers stroke fill"
       d="m 88.202086,64.397469 h 24.112894 c 0.6205,0 1.12004,0.499537 1.12004,1.12004 v 4.43181 c 0,0.620502 -0.49954,1.12004 -1.12004,1.12004 H 88.202086 c -0.620502,0 -1.120039,-0.499538 -1.120039,-1.12004 v -4.43181 c 0,-0.620503 0.499537,-1.12004 1.120039,-1.12004 z" />
  </g>
</svg>
