<?xml version="1.0" encoding="UTF-8" standalone="no"?>
<!-- Created with Inkscape (http://www.inkscape.org/) -->

<svg
   width="512"
   height="512"
   viewBox="0 0 135.46666 135.46667"
   version="1.1"
   id="svg1"
   inkscape:version="1.4.2 (ebf0e940d0, 2025-05-08)"
   sodipodi:docname="E043.svg"
   xmlns:inkscape="http://www.inkscape.org/namespaces/inkscape"
   xmlns:sodipodi="http://sodipodi.sourceforge.net/DTD/sodipodi-0.dtd"
   xmlns="http://www.w3.org/2000/svg"
   xmlns:svg="http://www.w3.org/2000/svg">
  <sodipodi:namedview
     id="namedview1"
     pagecolor="#ffffff"
     bordercolor="#000000"
     borderopacity="0.25"
     inkscape:showpageshadow="2"
     inkscape:pageopacity="0.0"
     inkscape:pagecheckerboard="0"
     inkscape:deskcolor="#d1d1d1"
     inkscape:document-units="mm"
     inkscape:zoom="1.0478516"
     inkscape:cx="272.46225"
     inkscape:cy="252.89841"
     inkscape:window-width="1175"
     inkscape:window-height="1052"
     inkscape:window-x="0"
     inkscape:window-y="26"
     inkscape:window-maximized="1"
     inkscape:current-layer="layer1" />
  <defs
     id="defs1">
    <rect
       x="85.647711"
       y="98.725039"
       width="340.70458"
       height="279.50668"
       id="rect8" />
    <rect
       x="161.81329"
       y="185.60937"
       width="216.33928"
       height="238.60052"
       id="rect3" />
  </defs>
  <g
     inkscape:label="Layer 1"
     inkscape:groupmode="layer"
     id="layer1">
    <path
       style="baseline-shift:baseline;display:inline;overflow:visible;vector-effect:none;stroke-linecap:round;stroke-linejoin:round;stroke-miterlimit:13.6;paint-order:markers fill stroke;enable-background:accumulate;stop-color:#000000;stop-opacity:1;opacity:1;stroke:none"
       d="m 22.660156,24.271484 a 1.850185,1.850185 0 0 0 -1.849609,1.84961 v 85.294926 a 1.85,1.85 0 0 0 1.849609,1.84961 1.85,1.85 0 0 0 1.851563,-1.84961 V 27.970703 h 86.443361 v 83.445317 a 1.85,1.85 0 0 0 1.85156,1.84961 1.85,1.85 0 0 0 1.84961,-1.84961 V 26.121094 a 1.850185,1.850185 0 0 0 -1.84961,-1.84961 z"
       id="path4" />
    <path
       style="baseline-shift:baseline;display:inline;overflow:visible;vector-effect:none;stroke-linecap:round;stroke-linejoin:round;stroke-miterlimit:13.6;paint-order:markers fill stroke;enable-background:accumulate;stop-color:#000000;stop-opacity:1;opacity:1;stroke:none"
       d="m 67.732422,91.751953 c -22.624722,0 -33.998763,1.600565 -39.947266,3.308594 -2.974251,0.854015 -4.614649,1.727603 -5.626953,2.599609 -0.506152,0.436004 -0.853177,0.883919 -1.066406,1.3125 -0.106615,0.214291 -0.178879,0.420825 -0.222656,0.609375 -0.04378,0.188551 -0.05859,0.492189 -0.05859,0.492189 a 1.850005,1.850005 0 0 0 1.849609,1.84961 1.850005,1.850005 0 0 0 1.851563,-1.84961 c 0,0 -0.01534,0.25194 -0.03711,0.3457 -0.02177,0.0938 -0.04978,0.16187 -0.06836,0.19922 -0.03717,0.0747 -0.03209,0.0164 0.166016,-0.1543 0.396208,-0.34129 1.572626,-1.083929 4.232421,-1.847653 5.319592,-1.527446 16.480081,-3.164062 38.927735,-3.164062 22.447655,0 33.608138,1.636616 38.927738,3.164062 2.65979,0.763724 3.83816,1.506363 4.23437,1.847653 0.19811,0.17065 0.20318,0.229 0.16602,0.1543 -0.0186,-0.0374 -0.0466,-0.10546 -0.0684,-0.19922 -0.0218,-0.0938 -0.0371,-0.3457 -0.0371,-0.3457 a 1.850005,1.850005 0 0 0 1.85156,1.84961 1.850005,1.850005 0 0 0 1.84961,-1.84961 c 0,0 -0.0148,-0.303638 -0.0586,-0.492189 -0.0438,-0.18855 -0.118,-0.395084 -0.22461,-0.609375 -0.21323,-0.428581 -0.5583,-0.876496 -1.06446,-1.3125 -1.0123,-0.872006 -2.6527,-1.745594 -5.62695,-2.599609 -5.9485,-1.708029 -17.324495,-3.308594 -39.949218,-3.308594 z"
       id="path5" />
    <path
       style="baseline-shift:baseline;display:inline;overflow:visible;vector-effect:none;stroke-linecap:round;stroke-linejoin:round;stroke-miterlimit:13.6;paint-order:markers fill stroke;enable-background:accumulate;stop-color:#000000;stop-opacity:1;opacity:1;stroke:none"
       d="m 67.732422,105.00977 a 1.85,1.85 0 0 0 -1.84961,1.84961 1.85,1.85 0 0 0 1.84961,1.8496 c 32.047475,0 41.254318,2.93968 43.275388,3.95704 0.56482,0.28431 0.80224,0.40177 1.16016,0.51367 0.0895,0.028 0.18836,0.0599 0.37109,0.084 0.18274,0.024 0.46531,0.13724 1.10352,-0.1875 0.15955,-0.0812 0.49747,-0.36659 0.49805,-0.36719 5.7e-4,-5.9e-4 0.3845,-0.59504 0.38476,-0.5957 2.6e-4,-6.6e-4 0.13083,-0.61066 0.13086,-0.61133 3e-5,-6.7e-4 -0.035,-0.45054 -0.0352,-0.45117 -1.3e-4,-6.3e-4 -0.0572,-0.21936 -0.0879,-0.29883 -0.0307,-0.0795 -0.0601,-0.14235 -0.0879,-0.19531 -0.0556,-0.10592 -0.14062,-0.22656 -0.14062,-0.22656 a 1.85,1.85 0 0 0 -2.53711,-0.4043 c 0.0873,-0.0666 0.13407,-0.11433 0.19726,-0.14648 0.63052,-0.32082 0.9001,-0.2042 1.05664,-0.1836 0.15654,0.0206 0.21694,0.0418 0.25196,0.0527 0.14007,0.0438 -0.10561,-0.0375 -0.60156,-0.28711 -3.26051,-1.64126 -12.675331,-4.35156 -44.939458,-4.35156 z m 43.980468,4.95703 a 1.85,1.85 0 0 0 -0.40625,2.53515 c 0,0 -0.0839,-0.12034 -0.13867,-0.22461 -0.0274,-0.0521 -0.0557,-0.11303 -0.0859,-0.1914 -0.0303,-0.0784 -0.0861,-0.29556 -0.0859,-0.29492 1.3e-4,6.3e-4 -0.0371,-0.44989 -0.0371,-0.44922 -2e-5,6.7e-4 0.13113,-0.60613 0.13086,-0.60547 -2.6e-4,6.6e-4 0.38339,-0.5924 0.38282,-0.5918 -2.8e-4,2.9e-4 0.14023,-0.0989 0.24023,-0.17773 z"
       id="path1" />
    <path
       style="baseline-shift:baseline;display:inline;overflow:visible;vector-effect:none;stroke-linecap:round;stroke-linejoin:round;stroke-miterlimit:13.6;paint-order:markers fill stroke;enable-background:accumulate;stop-color:#000000;stop-opacity:1;opacity:1;stroke:none"
       d="m 67.732422,105.00977 c -32.264127,0 -41.676995,2.7103 -44.9375,4.35156 -0.495955,0.24965 -0.741634,0.3309 -0.601563,0.28711 0.01683,-0.005 0.08482,-0.0163 0.121094,-0.0254 a 1.85,1.85 0 0 0 -1.152344,0.70703 c 0,0 -0.08499,0.12064 -0.140625,0.22656 -0.02782,0.053 -0.05721,0.11585 -0.08789,0.19531 -0.03068,0.0795 -0.08776,0.2982 -0.08789,0.29883 -1.29e-4,6.3e-4 -0.03519,0.4505 -0.03516,0.45117 2.9e-5,6.7e-4 0.130595,0.61067 0.130859,0.61133 2.64e-4,6.6e-4 0.384191,0.59511 0.384766,0.5957 5.75e-4,6e-4 0.338495,0.28601 0.498047,0.36719 0.638209,0.32474 0.920779,0.21155 1.103515,0.1875 0.182737,-0.0241 0.281614,-0.056 0.371094,-0.084 0.357919,-0.1119 0.595341,-0.22936 1.160156,-0.51367 2.021075,-1.01736 11.225963,-3.95704 43.273438,-3.95704 a 1.85,1.85 0 0 0 1.851562,-1.8496 1.85,1.85 0 0 0 -1.851562,-1.84961 z m -45.28711,4.58593 c 0.156541,-0.0206 0.426129,-0.13722 1.056641,0.1836 0.05134,0.0261 0.0888,0.0664 0.160156,0.11914 a 1.85,1.85 0 0 0 -1.24414,-0.29688 c 0.01482,-0.002 0.01034,-0.004 0.02734,-0.006 z m 1.34961,0.40039 c 0.07603,0.0611 0.199452,0.14868 0.199219,0.14844 -5.75e-4,-6e-4 0.383076,0.59246 0.382812,0.5918 -1.38e-4,-3.5e-4 0.03428,0.15827 0.06836,0.3164 a 1.85,1.85 0 0 0 -0.65039,-1.05664 z m 0.679687,1.1875 c 0.01316,0.061 0.03321,0.15838 0.0332,0.15821 -2.9e-5,-6.7e-4 -0.03724,0.44985 -0.03711,0.44922 1.29e-4,-6.4e-4 -0.05568,0.21655 -0.08594,0.29492 -0.03026,0.0784 -0.05856,0.13927 -0.08594,0.1914 -0.05476,0.10427 -0.138672,0.22461 -0.138672,0.22461 a 1.85,1.85 0 0 0 0.314453,-1.31836 z"
       id="path1-9" />
    <path
       d="m 206.03125,271.66946 v -137.4375 h 51.5625 q 15.75,0 25.21875,4.21875 9.5625,4.125 14.90625,12.84375 5.4375,8.625 5.4375,18.09375 0,8.8125 -4.78125,16.59375 -4.78125,7.78125 -14.4375,12.5625 12.46875,3.65625 19.125,12.46875 6.75,8.8125 6.75,20.8125 0,9.65625 -4.125,18 -4.03125,8.25 -10.03125,12.75 -6,4.5 -15.09375,6.84375 -9,2.25 -22.125,2.25 z m 18.1875,-79.6875 h 29.71875 q 12.09375,0 17.34375,-1.59375 6.9375,-2.0625 10.40625,-6.84375 3.5625,-4.78125 3.5625,-12 0,-6.84375 -3.28125,-12 -3.28125,-5.25 -9.375,-7.125 -6.09375,-1.96875 -20.90625,-1.96875 h -27.46875 z m 0,63.46875 h 34.21875 q 8.8125,0 12.375,-0.65625 6.28125,-1.125 10.5,-3.75 4.21875,-2.625 6.9375,-7.59375 2.71875,-5.0625 2.71875,-11.625 0,-7.6875 -3.9375,-13.3125 -3.9375,-5.71875 -10.96875,-7.96875 Q 269.125,208.20071 256,208.20071 h -31.78125 z"
       id="text8"
       style="font-size:192px;font-family:Arial;-inkscape-font-specification:Arial;text-align:center;white-space:pre;stroke:none;stroke-width:0;stroke-linecap:round;stroke-linejoin:round;stroke-miterlimit:13.6;paint-order:markers fill stroke"
       transform="matrix(0.31379257,0,0,0.31379257,-13.200635,-2.1052174)"
       aria-label="B" />
  </g>
</svg>
