<?xml version="1.0" encoding="UTF-8" standalone="no"?>
<!-- Created with Inkscape (http://www.inkscape.org/) -->

<svg
   width="512"
   height="512"
   viewBox="0 0 135.46666 135.46667"
   version="1.1"
   id="svg1"
   inkscape:version="1.4.2 (ebf0e940d0, 2025-05-08)"
   sodipodi:docname="E048.svg"
   xml:space="preserve"
   xmlns:inkscape="http://www.inkscape.org/namespaces/inkscape"
   xmlns:sodipodi="http://sodipodi.sourceforge.net/DTD/sodipodi-0.dtd"
   xmlns="http://www.w3.org/2000/svg"
   xmlns:svg="http://www.w3.org/2000/svg"><sodipodi:namedview
     id="namedview1"
     pagecolor="#ffffff"
     bordercolor="#000000"
     borderopacity="0.25"
     inkscape:showpageshadow="2"
     inkscape:pageopacity="0.0"
     inkscape:pagecheckerboard="0"
     inkscape:deskcolor="#d1d1d1"
     inkscape:document-units="mm"
     inkscape:zoom="1.4142136"
     inkscape:cx="227.33482"
     inkscape:cy="239.70919"
     inkscape:window-width="1175"
     inkscape:window-height="1052"
     inkscape:window-x="0"
     inkscape:window-y="26"
     inkscape:window-maximized="0"
     inkscape:current-layer="layer1"
     showgrid="false"><inkscape:grid
       id="grid6"
       units="mm"
       originx="0"
       originy="0"
       spacingx="0.99999995"
       spacingy="1"
       empcolor="#0099e5"
       empopacity="0.30196078"
       color="#0099e5"
       opacity="0.14901961"
       empspacing="5"
       enabled="true"
       visible="false" /></sodipodi:namedview><defs
     id="defs1"><rect
       x="105.58392"
       y="117.66884"
       width="373.12738"
       height="299.52416"
       id="rect5" /><inkscape:path-effect
       effect="fillet_chamfer"
       id="path-effect7"
       is_visible="true"
       lpeversion="1"
       nodesatellites_param="F,0,0,1,0,1.8173645,0,1 @ F,0,0,1,0,0,0,1 @ F,0,0,1,0,0,0,1 @ F,0,0,1,0,0,0,1 @ F,0,0,1,0,0,0,1 @ F,0,0,1,0,0,0,1 @ F,0,0,1,0,0,0,1 @ F,0,0,1,0,0,0,1 @ F,0,0,1,0,0,0,1 @ F,0,0,1,0,0,0,1 @ F,0,0,1,0,0,0,1 @ F,0,0,1,0,1.7602026,0,1"
       radius="0"
       unit="px"
       method="auto"
       mode="F"
       chamfer_steps="1"
       flexible="false"
       use_knot_distance="true"
       apply_no_radius="true"
       apply_with_radius="true"
       only_selected="false"
       hide_knots="false" /><inkscape:path-effect
       effect="bspline"
       id="path-effect1"
       is_visible="true"
       lpeversion="1.3"
       weight="33.333333"
       steps="2"
       helper_size="0"
       apply_no_weight="true"
       apply_with_weight="true"
       only_selected="false"
       uniform="false" /><rect
       x="161.81329"
       y="185.60937"
       width="295.0713"
       height="244.07972"
       id="rect3" /><inkscape:path-effect
       effect="bspline"
       id="path-effect1-2"
       is_visible="true"
       lpeversion="1.3"
       weight="33.333333"
       steps="2"
       helper_size="0"
       apply_no_weight="true"
       apply_with_weight="true"
       only_selected="false"
       uniform="false" /><rect
       x="105.58392"
       y="117.66884"
       width="373.12738"
       height="299.52417"
       id="rect5-6" /></defs><g
     inkscape:label="Layer 1"
     inkscape:groupmode="layer"
     id="layer1"><path
       style="baseline-shift:baseline;display:inline;overflow:visible;vector-effect:none;stroke-linecap:round;stroke-linejoin:round;stroke-miterlimit:13.6;paint-order:markers stroke fill;enable-background:accumulate;stop-color:#000000;stop-opacity:1;opacity:1;stroke:none"
       d="m 67.732422,11.164063 c -31.212379,-1e-6 -56.56836,25.35598 -56.568359,56.568359 -3e-6,31.21238 25.355979,56.570308 56.568359,56.570308 31.212381,1e-5 56.570318,-25.357927 56.570308,-56.570308 0,-31.21238 -25.357928,-56.568362 -56.570308,-56.568359 z m 0,4.999999 c 28.510179,-2e-6 51.570308,23.058181 51.570308,51.56836 1e-5,28.51018 -23.060128,51.570318 -51.570308,51.570308 -28.510179,0 -51.568362,-23.060129 -51.56836,-51.570308 0,-28.510178 23.058182,-51.56836 51.56836,-51.56836 z"
       id="path2" /><g
       id="g5"
       transform="translate(8.0837073)"
       style="stroke:none"><path
         style="font-size:192px;font-family:Arial;-inkscape-font-specification:Arial;white-space:pre;stroke:none;stroke-width:0;stroke-linecap:round;stroke-linejoin:round;stroke-miterlimit:13.6;paint-order:markers stroke fill"
         d="m 202.24023,274.39407 v 16.21875 h -90.84375 q -0.1875,-6.09375 1.96875,-11.71875 3.46875,-9.28125 11.0625,-18.28125 7.6875,-9 22.125,-20.8125 22.40625,-18.375 30.28125,-29.0625 7.875,-10.78125 7.875,-20.34375 0,-10.03125 -7.21875,-16.875 -7.125,-6.9375 -18.65625,-6.9375 -12.1875,0 -19.5,7.3125 -7.3125,7.3125 -7.40625,20.25 l -17.34375,-1.78125 q 1.78125,-19.40625 13.40625,-29.53125 11.625,-10.21875 31.21875,-10.21875 19.78125,0 31.3125,10.96875 11.53125,10.96875 11.53125,27.1875 0,8.25 -3.375,16.21875 -3.375,7.96875 -11.25,16.78125 -7.78125,8.8125 -25.96875,24.1875 -15.1875,12.75 -19.5,17.34375 -4.3125,4.5 -7.125,9.09375 z"
         id="text5"
         transform="matrix(0.39644235,0,0,0.39644235,-2.4826464,-20.123373)"
         aria-label="2" /></g></g></svg>
