<?xml version="1.0" encoding="UTF-8" standalone="no"?>
<!-- Created with Inkscape (http://www.inkscape.org/) -->

<svg
   width="512"
   height="512"
   viewBox="0 0 135.46666 135.46667"
   version="1.1"
   id="svg1"
   inkscape:version="1.4.2 (ebf0e940d0, 2025-05-08)"
   sodipodi:docname="E04A.svg"
   xml:space="preserve"
   xmlns:inkscape="http://www.inkscape.org/namespaces/inkscape"
   xmlns:sodipodi="http://sodipodi.sourceforge.net/DTD/sodipodi-0.dtd"
   xmlns="http://www.w3.org/2000/svg"
   xmlns:svg="http://www.w3.org/2000/svg"><sodipodi:namedview
     id="namedview1"
     pagecolor="#ffffff"
     bordercolor="#000000"
     borderopacity="0.25"
     inkscape:showpageshadow="2"
     inkscape:pageopacity="0.0"
     inkscape:pagecheckerboard="0"
     inkscape:deskcolor="#d1d1d1"
     inkscape:document-units="mm"
     inkscape:zoom="1.4142136"
     inkscape:cx="246.42671"
     inkscape:cy="265.16504"
     inkscape:window-width="1175"
     inkscape:window-height="1052"
     inkscape:window-x="0"
     inkscape:window-y="26"
     inkscape:window-maximized="0"
     inkscape:current-layer="layer1"
     showgrid="false"><inkscape:grid
       id="grid6"
       units="mm"
       originx="0"
       originy="0"
       spacingx="0.99999995"
       spacingy="1"
       empcolor="#0099e5"
       empopacity="0.30196078"
       color="#0099e5"
       opacity="0.14901961"
       empspacing="5"
       enabled="true"
       visible="false" /></sodipodi:namedview><defs
     id="defs1"><rect
       x="111.01576"
       y="121.62237"
       width="359.21024"
       height="298.39906"
       id="rect6" /><rect
       x="105.58392"
       y="117.66884"
       width="373.12738"
       height="299.52416"
       id="rect5" /><inkscape:path-effect
       effect="fillet_chamfer"
       id="path-effect7"
       is_visible="true"
       lpeversion="1"
       nodesatellites_param="F,0,0,1,0,1.8173645,0,1 @ F,0,0,1,0,0,0,1 @ F,0,0,1,0,0,0,1 @ F,0,0,1,0,0,0,1 @ F,0,0,1,0,0,0,1 @ F,0,0,1,0,0,0,1 @ F,0,0,1,0,0,0,1 @ F,0,0,1,0,0,0,1 @ F,0,0,1,0,0,0,1 @ F,0,0,1,0,0,0,1 @ F,0,0,1,0,0,0,1 @ F,0,0,1,0,1.7602026,0,1"
       radius="0"
       unit="px"
       method="auto"
       mode="F"
       chamfer_steps="1"
       flexible="false"
       use_knot_distance="true"
       apply_no_radius="true"
       apply_with_radius="true"
       only_selected="false"
       hide_knots="false" /><inkscape:path-effect
       effect="bspline"
       id="path-effect1"
       is_visible="true"
       lpeversion="1.3"
       weight="33.333333"
       steps="2"
       helper_size="0"
       apply_no_weight="true"
       apply_with_weight="true"
       only_selected="false"
       uniform="false" /><rect
       x="161.81329"
       y="185.60937"
       width="295.0713"
       height="244.07972"
       id="rect3" /><inkscape:path-effect
       effect="bspline"
       id="path-effect1-2"
       is_visible="true"
       lpeversion="1.3"
       weight="33.333333"
       steps="2"
       helper_size="0"
       apply_no_weight="true"
       apply_with_weight="true"
       only_selected="false"
       uniform="false" /><rect
       x="105.58392"
       y="117.66884"
       width="373.12738"
       height="299.52417"
       id="rect5-6" /></defs><g
     inkscape:label="Layer 1"
     inkscape:groupmode="layer"
     id="layer1"><path
       style="baseline-shift:baseline;display:inline;overflow:visible;vector-effect:none;stroke-linecap:round;stroke-miterlimit:13.6;paint-order:markers stroke fill;enable-background:accumulate;stop-color:#000000;stop-opacity:1;opacity:1;stroke:none"
       d="m 67.732422,27.240234 c -27.273898,0 -49.658203,17.976084 -49.658203,40.492188 -2e-6,22.516105 22.384304,40.494138 49.658203,40.494138 27.273898,0 49.660158,-17.978034 49.660158,-40.494138 0,-22.516104 -22.386261,-40.492187 -49.660158,-40.492188 z m 0,2.652344 c 26.112046,1e-6 47.005858,17.092913 47.005858,37.839844 0,20.746932 -20.893811,37.841798 -47.005858,37.841798 -26.112048,0 -47.003908,-17.094866 -47.003906,-37.841798 0,-20.746932 20.891859,-37.839844 47.003906,-37.839844 z"
       id="path6" /><path
       style="font-size:192px;font-family:Arial;-inkscape-font-specification:Arial;white-space:pre;stroke:none;stroke-width:0;stroke-linecap:round;stroke-miterlimit:13.6;paint-order:markers stroke fill"
       d="m 223.89062,246.3804 18.1875,4.59375 q -5.71875,22.40625 -20.625,34.21875 -14.8125,11.71875 -36.28125,11.71875 -22.21875,0 -36.1875,-9 -13.875,-9.09375 -21.18749,-26.25 -7.21875,-17.15625 -7.21875,-36.84375 0,-21.46875 8.15624,-37.40625 8.25,-16.03125 23.34375,-24.28125 15.1875,-8.34375 33.375,-8.34375 20.625,0 34.6875,10.5 14.0625,10.5 19.59375,29.53125 l -17.90625,4.21875 q -4.78125,-15 -13.875,-21.84375 -9.09375,-6.84375 -22.875,-6.84375 -15.84375,0 -26.53125,7.59375 -10.59375,7.59375 -14.90625,20.4375 -4.3125,12.75 -4.3125,26.34375 0,17.53125 5.0625,30.65625 5.15625,13.03125 15.9375,19.5 10.78125,6.46875 23.34375,6.46875 15.28125,0 25.875,-8.8125 10.59375,-8.8125 14.34375,-26.15625 z"
       id="text6"
       transform="matrix(0.40956805,0,0,0.40956805,-6.5328724,-24.767261)"
       aria-label="C" /></g></svg>
