<?xml version="1.0" encoding="UTF-8" standalone="no"?>
<!-- Created with Inkscape (http://www.inkscape.org/) -->

<svg
   width="512"
   height="512"
   viewBox="0 0 135.46666 135.46667"
   version="1.1"
   id="svg1"
   inkscape:version="1.4.2 (ebf0e940d0, 2025-05-08)"
   sodipodi:docname="E050.svg"
   xml:space="preserve"
   xmlns:inkscape="http://www.inkscape.org/namespaces/inkscape"
   xmlns:sodipodi="http://sodipodi.sourceforge.net/DTD/sodipodi-0.dtd"
   xmlns="http://www.w3.org/2000/svg"
   xmlns:svg="http://www.w3.org/2000/svg"><sodipodi:namedview
     id="namedview1"
     pagecolor="#ffffff"
     bordercolor="#000000"
     borderopacity="0.25"
     inkscape:showpageshadow="2"
     inkscape:pageopacity="0.0"
     inkscape:pagecheckerboard="0"
     inkscape:deskcolor="#d1d1d1"
     inkscape:document-units="mm"
     inkscape:zoom="1.4142136"
     inkscape:cx="226.62772"
     inkscape:cy="239.70919"
     inkscape:window-width="1175"
     inkscape:window-height="1052"
     inkscape:window-x="0"
     inkscape:window-y="26"
     inkscape:window-maximized="0"
     inkscape:current-layer="layer1"
     showgrid="false"><inkscape:grid
       id="grid6"
       units="mm"
       originx="0"
       originy="0"
       spacingx="0.99999995"
       spacingy="1"
       empcolor="#0099e5"
       empopacity="0.30196078"
       color="#0099e5"
       opacity="0.14901961"
       empspacing="5"
       enabled="true"
       visible="false" /></sodipodi:namedview><defs
     id="defs1"><rect
       x="207.18228"
       y="221.32442"
       width="103.23759"
       height="94.045199"
       id="rect2" /><rect
       x="159.75889"
       y="149.20253"
       width="211.11867"
       height="193.34506"
       id="rect1" /><rect
       x="105.58392"
       y="117.66884"
       width="373.12738"
       height="299.52416"
       id="rect5" /><inkscape:path-effect
       effect="fillet_chamfer"
       id="path-effect7"
       is_visible="true"
       lpeversion="1"
       nodesatellites_param="F,0,0,1,0,1.8173645,0,1 @ F,0,0,1,0,0,0,1 @ F,0,0,1,0,0,0,1 @ F,0,0,1,0,0,0,1 @ F,0,0,1,0,0,0,1 @ F,0,0,1,0,0,0,1 @ F,0,0,1,0,0,0,1 @ F,0,0,1,0,0,0,1 @ F,0,0,1,0,0,0,1 @ F,0,0,1,0,0,0,1 @ F,0,0,1,0,0,0,1 @ F,0,0,1,0,1.7602026,0,1"
       radius="0"
       unit="px"
       method="auto"
       mode="F"
       chamfer_steps="1"
       flexible="false"
       use_knot_distance="true"
       apply_no_radius="true"
       apply_with_radius="true"
       only_selected="false"
       hide_knots="false" /><inkscape:path-effect
       effect="bspline"
       id="path-effect1"
       is_visible="true"
       lpeversion="1.3"
       weight="33.333333"
       steps="2"
       helper_size="0"
       apply_no_weight="true"
       apply_with_weight="true"
       only_selected="false"
       uniform="false" /><rect
       x="161.81329"
       y="185.60937"
       width="295.0713"
       height="244.07972"
       id="rect3" /><inkscape:path-effect
       effect="bspline"
       id="path-effect1-2"
       is_visible="true"
       lpeversion="1.3"
       weight="33.333333"
       steps="2"
       helper_size="0"
       apply_no_weight="true"
       apply_with_weight="true"
       only_selected="false"
       uniform="false" /><rect
       x="105.58392"
       y="117.66884"
       width="373.12738"
       height="299.52417"
       id="rect5-6" /></defs><g
     inkscape:label="Layer 1"
     inkscape:groupmode="layer"
     id="layer1"><path
       style="baseline-shift:baseline;display:inline;overflow:visible;vector-effect:none;stroke-linecap:round;stroke-miterlimit:13.6;paint-order:markers stroke fill;enable-background:accumulate;stop-color:#000000;stop-opacity:1;opacity:1;stroke:none"
       d="m 19.392578,-39.853516 -50.96289,21.78125 -20.632813,51.439453 21.783203,50.960938 51.439453,20.632815 50.960938,-21.783206 20.632812,-51.4375 -21.783203,-50.96289 z m 0.03906,3.527344 48.93164,19.626953 20.722656,48.478516 -19.626953,48.93164 -48.478515,20.722653 -48.933594,-19.626949 -20.720703,-48.478516 19.626953,-48.933594 z"
       id="path5"
       transform="matrix(0.76694608,0,0,0.76694608,52.236746,42.766609)" /><path
       style="baseline-shift:baseline;display:inline;overflow:visible;vector-effect:none;stroke-linecap:round;stroke-miterlimit:13.6;paint-order:markers stroke fill;enable-background:accumulate;stop-color:#000000;stop-opacity:1;opacity:1;stroke:none"
       d="m 67.732422,23.677734 c -24.312921,0 -44.054688,19.741767 -44.054688,44.054688 0,24.312921 19.741767,44.056638 44.054688,44.056638 24.312921,0 44.056638,-19.743717 44.056638,-44.056638 0,-24.312921 -19.743717,-44.054688 -44.056638,-44.054688 z m 0,3.09961 c 22.637557,0 40.957028,18.317521 40.957028,40.955078 0,22.637557 -18.319471,40.957028 -40.957028,40.957028 -22.637557,0 -40.955078,-18.319471 -40.955078,-40.957028 0,-22.637557 18.317521,-40.955078 40.955078,-40.955078 z"
       id="path6" /><path
       style="baseline-shift:baseline;display:inline;overflow:visible;vector-effect:none;stroke-linecap:round;stroke-miterlimit:13.6;paint-order:markers stroke fill;enable-background:accumulate;stop-color:#000000;stop-opacity:1;opacity:1;stroke:none"
       d="m 67.732422,28.871094 c -21.50324,0 -38.955078,17.407448 -38.955078,38.861328 1e-6,21.453879 17.451839,38.863278 38.955078,38.863278 21.503241,1e-5 38.957028,-17.409397 38.957028,-38.863278 0,-21.453882 -17.453787,-38.861331 -38.957028,-38.861328 z m 0,1.732422 c 20.568959,-3e-6 37.224608,16.613913 37.224608,37.128906 0,20.514992 -16.65565,37.130858 -37.224608,37.130858 -20.568957,0 -37.222655,-16.615867 -37.222656,-37.130858 0,-20.514992 16.653699,-37.128906 37.222656,-37.128906 z"
       id="path6-3" /><path
       d="m 210.69727,264.56043 v -34.35937 h 4.54687 v 30.30468 h 16.92188 v 4.05469 z"
       id="text2"
       style="font-size:48px;font-family:Arial;-inkscape-font-specification:Arial;white-space:pre;stroke:none;stroke-width:0;stroke-linecap:round;stroke-miterlimit:13.6;paint-order:markers stroke fill"
       transform="matrix(1.2745388,0,0,1.2745388,-214.48988,-247.56302)"
       aria-label="L" /></g></svg>
