<?xml version="1.0" encoding="UTF-8" standalone="no"?>
<!-- Created with Inkscape (http://www.inkscape.org/) -->

<svg
   width="512"
   height="512"
   viewBox="0 0 135.46666 135.46667"
   version="1.1"
   id="svg1"
   inkscape:version="1.4.2 (ebf0e940d0, 2025-05-08)"
   sodipodi:docname="E052.svg"
   xml:space="preserve"
   xmlns:inkscape="http://www.inkscape.org/namespaces/inkscape"
   xmlns:sodipodi="http://sodipodi.sourceforge.net/DTD/sodipodi-0.dtd"
   xmlns="http://www.w3.org/2000/svg"
   xmlns:svg="http://www.w3.org/2000/svg"><sodipodi:namedview
     id="namedview1"
     pagecolor="#ffffff"
     bordercolor="#000000"
     borderopacity="0.25"
     inkscape:showpageshadow="2"
     inkscape:pageopacity="0.0"
     inkscape:pagecheckerboard="0"
     inkscape:deskcolor="#d1d1d1"
     inkscape:document-units="mm"
     inkscape:zoom="1.4142136"
     inkscape:cx="226.62772"
     inkscape:cy="239.70919"
     inkscape:window-width="1175"
     inkscape:window-height="1052"
     inkscape:window-x="0"
     inkscape:window-y="26"
     inkscape:window-maximized="0"
     inkscape:current-layer="layer1"
     showgrid="false"><inkscape:grid
       id="grid6"
       units="mm"
       originx="0"
       originy="0"
       spacingx="0.99999995"
       spacingy="1"
       empcolor="#0099e5"
       empopacity="0.30196078"
       color="#0099e5"
       opacity="0.14901961"
       empspacing="5"
       enabled="true"
       visible="false" /></sodipodi:namedview><defs
     id="defs1"><rect
       x="187.38329"
       y="173.94826"
       width="166.17009"
       height="175.36248"
       id="rect6" /><rect
       x="207.18228"
       y="221.32442"
       width="103.23759"
       height="94.045199"
       id="rect2" /><rect
       x="159.75889"
       y="149.20253"
       width="211.11867"
       height="193.34506"
       id="rect1" /><rect
       x="105.58392"
       y="117.66884"
       width="373.12738"
       height="299.52416"
       id="rect5" /><inkscape:path-effect
       effect="fillet_chamfer"
       id="path-effect7"
       is_visible="true"
       lpeversion="1"
       nodesatellites_param="F,0,0,1,0,1.8173645,0,1 @ F,0,0,1,0,0,0,1 @ F,0,0,1,0,0,0,1 @ F,0,0,1,0,0,0,1 @ F,0,0,1,0,0,0,1 @ F,0,0,1,0,0,0,1 @ F,0,0,1,0,0,0,1 @ F,0,0,1,0,0,0,1 @ F,0,0,1,0,0,0,1 @ F,0,0,1,0,0,0,1 @ F,0,0,1,0,0,0,1 @ F,0,0,1,0,1.7602026,0,1"
       radius="0"
       unit="px"
       method="auto"
       mode="F"
       chamfer_steps="1"
       flexible="false"
       use_knot_distance="true"
       apply_no_radius="true"
       apply_with_radius="true"
       only_selected="false"
       hide_knots="false" /><inkscape:path-effect
       effect="bspline"
       id="path-effect1"
       is_visible="true"
       lpeversion="1.3"
       weight="33.333333"
       steps="2"
       helper_size="0"
       apply_no_weight="true"
       apply_with_weight="true"
       only_selected="false"
       uniform="false" /><rect
       x="161.81329"
       y="185.60937"
       width="295.0713"
       height="244.07972"
       id="rect3" /><inkscape:path-effect
       effect="bspline"
       id="path-effect1-2"
       is_visible="true"
       lpeversion="1.3"
       weight="33.333333"
       steps="2"
       helper_size="0"
       apply_no_weight="true"
       apply_with_weight="true"
       only_selected="false"
       uniform="false" /><rect
       x="105.58392"
       y="117.66884"
       width="373.12738"
       height="299.52417"
       id="rect5-6" /></defs><g
     inkscape:label="Layer 1"
     inkscape:groupmode="layer"
     id="layer1"><path
       style="baseline-shift:baseline;display:inline;overflow:visible;vector-effect:none;stroke-linecap:round;stroke-miterlimit:13.6;paint-order:markers stroke fill;enable-background:accumulate;stop-color:#000000;stop-opacity:1;opacity:1;stroke:none"
       d="m 45.421875,32.199219 c -7.366362,0 -13.935405,4.174196 -18.542969,10.626953 -4.607564,6.452757 -7.373047,15.225763 -7.373047,24.90625 0,9.680487 2.765483,18.455447 7.373047,24.908203 4.607564,6.452756 11.176607,10.624995 18.542969,10.625005 h 44.623047 c 7.366362,-1e-5 13.935408,-4.172249 18.542968,-10.625005 4.60756,-6.452756 7.37109,-15.227716 7.37109,-24.908203 0,-9.680487 -2.76353,-18.453493 -7.37109,-24.90625 C 103.98033,36.373415 97.411284,32.199219 90.044922,32.199219 Z m 0,3.800781 h 44.623047 c 5.938385,0 11.377028,3.327486 15.451168,9.033203 4.07415,5.705717 6.66407,13.746802 6.66407,22.699219 0,8.952416 -2.58992,16.995456 -6.66407,22.701172 -4.07414,5.705716 -9.512783,9.033203 -15.451168,9.033203 H 45.421875 c -5.938384,0 -11.377029,-3.327487 -15.451172,-9.033203 -4.074143,-5.705716 -6.664062,-13.748756 -6.664062,-22.701172 0,-8.952417 2.589919,-16.993502 6.664062,-22.699219 C 34.044846,39.327486 39.483491,36 45.421875,36 Z"
       id="rect4" /><path
       style="font-size:48px;font-family:Arial;-inkscape-font-specification:Arial;white-space:pre;stroke:none;stroke-width:0;stroke-linecap:round;stroke-miterlimit:13.6;paint-order:markers stroke fill"
       d="m 190.89844,217.18543 v -34.35937 h 4.54687 v 30.30468 h 16.92188 v 4.05469 z"
       id="text4"
       transform="matrix(1.2664733,0,0,1.2664733,-187.62924,-185.5686)"
       aria-label="L" /></g></svg>
