<?xml version="1.0" encoding="UTF-8" standalone="no"?>
<!-- Created with Inkscape (http://www.inkscape.org/) -->

<svg
   width="512"
   height="512"
   viewBox="0 0 135.46666 135.46667"
   version="1.1"
   id="svg1"
   inkscape:version="1.4.2 (ebf0e940d0, 2025-05-08)"
   sodipodi:docname="E055.svg"
   xml:space="preserve"
   xmlns:inkscape="http://www.inkscape.org/namespaces/inkscape"
   xmlns:sodipodi="http://sodipodi.sourceforge.net/DTD/sodipodi-0.dtd"
   xmlns="http://www.w3.org/2000/svg"
   xmlns:svg="http://www.w3.org/2000/svg"><sodipodi:namedview
     id="namedview1"
     pagecolor="#ffffff"
     bordercolor="#000000"
     borderopacity="0.25"
     inkscape:showpageshadow="2"
     inkscape:pageopacity="0.0"
     inkscape:pagecheckerboard="0"
     inkscape:deskcolor="#d1d1d1"
     inkscape:document-units="mm"
     inkscape:zoom="1.4142136"
     inkscape:cx="295.21707"
     inkscape:cy="239.70919"
     inkscape:window-width="1175"
     inkscape:window-height="1052"
     inkscape:window-x="0"
     inkscape:window-y="26"
     inkscape:window-maximized="0"
     inkscape:current-layer="layer1"
     showgrid="false"><inkscape:grid
       id="grid6"
       units="mm"
       originx="0"
       originy="0"
       spacingx="0.99999995"
       spacingy="1"
       empcolor="#0099e5"
       empopacity="0.30196078"
       color="#0099e5"
       opacity="0.14901961"
       empspacing="5"
       enabled="true"
       visible="false" /></sodipodi:namedview><defs
     id="defs1"><rect
       x="187.38329"
       y="173.94826"
       width="166.17009"
       height="175.36248"
       id="rect6" /><rect
       x="207.18228"
       y="221.32442"
       width="103.23759"
       height="94.045199"
       id="rect2" /><rect
       x="159.75889"
       y="149.20253"
       width="211.11867"
       height="193.34506"
       id="rect1" /><rect
       x="105.58392"
       y="117.66884"
       width="373.12738"
       height="299.52416"
       id="rect5" /><inkscape:path-effect
       effect="fillet_chamfer"
       id="path-effect7"
       is_visible="true"
       lpeversion="1"
       nodesatellites_param="F,0,0,1,0,1.8173645,0,1 @ F,0,0,1,0,0,0,1 @ F,0,0,1,0,0,0,1 @ F,0,0,1,0,0,0,1 @ F,0,0,1,0,0,0,1 @ F,0,0,1,0,0,0,1 @ F,0,0,1,0,0,0,1 @ F,0,0,1,0,0,0,1 @ F,0,0,1,0,0,0,1 @ F,0,0,1,0,0,0,1 @ F,0,0,1,0,0,0,1 @ F,0,0,1,0,1.7602026,0,1"
       radius="0"
       unit="px"
       method="auto"
       mode="F"
       chamfer_steps="1"
       flexible="false"
       use_knot_distance="true"
       apply_no_radius="true"
       apply_with_radius="true"
       only_selected="false"
       hide_knots="false" /><inkscape:path-effect
       effect="bspline"
       id="path-effect1"
       is_visible="true"
       lpeversion="1.3"
       weight="33.333333"
       steps="2"
       helper_size="0"
       apply_no_weight="true"
       apply_with_weight="true"
       only_selected="false"
       uniform="false" /><rect
       x="161.81329"
       y="185.60937"
       width="295.0713"
       height="244.07972"
       id="rect3" /><inkscape:path-effect
       effect="bspline"
       id="path-effect1-2"
       is_visible="true"
       lpeversion="1.3"
       weight="33.333333"
       steps="2"
       helper_size="0"
       apply_no_weight="true"
       apply_with_weight="true"
       only_selected="false"
       uniform="false" /><rect
       x="105.58392"
       y="117.66884"
       width="373.12738"
       height="299.52417"
       id="rect5-6" /></defs><g
     inkscape:label="Layer 1"
     inkscape:groupmode="layer"
     id="layer1"><path
       style="baseline-shift:baseline;display:inline;overflow:visible;vector-effect:none;stroke-linecap:round;stroke-miterlimit:13.6;paint-order:markers stroke fill;enable-background:accumulate;stop-color:#000000;stop-opacity:1;opacity:1;stroke:none"
       d="m 67.732422,32.199219 c -13.202625,0 -25.155425,3.843054 -33.902344,10.193359 -8.746918,6.350306 -14.324219,15.321164 -14.324219,25.339844 0,10.018679 5.577301,18.991492 14.324219,25.341797 8.746919,6.350304 20.699719,10.191401 33.902344,10.191411 13.202624,-1e-5 25.157378,-3.841107 33.904298,-10.191411 8.74692,-6.350305 14.32226,-15.323118 14.32226,-25.341797 0,-10.01868 -5.57534,-18.989538 -14.32226,-25.339844 C 92.8898,36.042273 80.935046,32.199219 67.732422,32.199219 Z m 0,3.800781 c 12.46236,0 23.671696,3.658628 31.671875,9.466797 8.000183,5.808168 12.755863,13.6514 12.755863,22.265625 0,8.614224 -4.75568,16.45941 -12.755863,22.267578 -8.000179,5.808168 -19.209515,9.466797 -31.671875,9.466797 C 55.270062,99.466797 44.062679,95.808168 36.0625,90 28.062321,84.191832 23.306641,76.346646 23.306641,67.732422 c 0,-8.614225 4.75568,-16.457457 12.755859,-22.265625 C 44.062679,39.658628 55.270062,36 67.732422,36 Z"
       id="rect4" /><g
       id="text4"
       style="font-size:48px;font-family:Arial;-inkscape-font-specification:Arial;white-space:pre;fill:none;stroke:none;stroke-width:0;stroke-linecap:round;stroke-miterlimit:13.6;paint-order:markers stroke fill"
       transform="matrix(1.1739074,0,0,1.1739074,-185.71279,-167.05489)"
       aria-label="ZR"><path
         style="fill:#000000;stroke:none"
         d="m 188.34375,217.18543 v -4.21875 l 17.60156,-22.00781 q 1.875,-2.34375 3.5625,-4.07813 h -19.17187 v -4.05468 h 24.60937 v 4.05468 l -19.28906,23.83594 -2.08594,2.41406 h 21.9375 v 4.05469 z"
         id="path1" /><path
         style="font-size:37.7073px;fill:#000000;stroke:none"
         d="m 219.66742,217.18543 v -26.99165 h 11.96765 q 3.6087,0 5.4867,0.73647 1.878,0.71806 3.00112,2.55924 1.12312,1.84117 1.12312,4.069 0,2.87223 -1.85959,4.84229 -1.85959,1.97006 -5.74447,2.504 1.41771,0.68124 2.15418,1.34406 1.565,1.43612 2.96429,3.5903 l 4.695,7.34629 h -4.49247 l -3.57188,-5.61559 q -1.565,-2.43035 -2.57765,-3.71917 -1.01265,-1.28883 -1.82276,-1.80436 -0.79171,-0.51553 -1.62024,-0.71806 -0.60759,-0.12888 -1.98847,-0.12888 h -4.14265 v 11.98606 z m 3.57188,-15.07924 h 7.67771 q 2.44876,0 3.82965,-0.49711 1.38088,-0.51553 2.09894,-1.62024 0.71806,-1.12312 0.71806,-2.43035 0,-1.91483 -1.3993,-3.14841 -1.38088,-1.23359 -4.382,-1.23359 h -8.54306 z"
         id="path2" /></g></g></svg>
