<?xml version="1.0" encoding="UTF-8" standalone="no"?>
<!-- Created with Inkscape (http://www.inkscape.org/) -->

<svg
   width="512"
   height="512"
   viewBox="0 0 135.46666 135.46667"
   version="1.1"
   id="svg1"
   inkscape:version="1.4.2 (ebf0e940d0, 2025-05-08)"
   sodipodi:docname="E05C.svg"
   xml:space="preserve"
   xmlns:inkscape="http://www.inkscape.org/namespaces/inkscape"
   xmlns:sodipodi="http://sodipodi.sourceforge.net/DTD/sodipodi-0.dtd"
   xmlns="http://www.w3.org/2000/svg"
   xmlns:svg="http://www.w3.org/2000/svg"><sodipodi:namedview
     id="namedview1"
     pagecolor="#ffffff"
     bordercolor="#000000"
     borderopacity="0.25"
     inkscape:showpageshadow="2"
     inkscape:pageopacity="0.0"
     inkscape:pagecheckerboard="0"
     inkscape:deskcolor="#d1d1d1"
     inkscape:document-units="mm"
     inkscape:zoom="1"
     inkscape:cx="106.5"
     inkscape:cy="327"
     inkscape:window-width="1175"
     inkscape:window-height="1052"
     inkscape:window-x="0"
     inkscape:window-y="26"
     inkscape:window-maximized="0"
     inkscape:current-layer="layer1"
     showgrid="false"><inkscape:grid
       id="grid6"
       units="mm"
       originx="0"
       originy="0"
       spacingx="0.99999995"
       spacingy="1"
       empcolor="#0099e5"
       empopacity="0.30196078"
       color="#0099e5"
       opacity="0.14901961"
       empspacing="5"
       enabled="true"
       visible="false" /></sodipodi:namedview><defs
     id="defs1"><rect
       x="27"
       y="188"
       width="413"
       height="353"
       id="rect7" /><rect
       x="176.15695"
       y="289"
       width="152.84305"
       height="173.25157"
       id="rect4" /><rect
       x="187.38329"
       y="173.94826"
       width="166.17009"
       height="175.36248"
       id="rect6" /><rect
       x="207.18228"
       y="221.32442"
       width="103.23759"
       height="94.045199"
       id="rect2" /><rect
       x="159.75889"
       y="149.20253"
       width="211.11867"
       height="193.34506"
       id="rect1" /><rect
       x="105.58392"
       y="117.66884"
       width="373.12738"
       height="299.52416"
       id="rect5" /><inkscape:path-effect
       effect="fillet_chamfer"
       id="path-effect7"
       is_visible="true"
       lpeversion="1"
       nodesatellites_param="F,0,0,1,0,1.8173645,0,1 @ F,0,0,1,0,0,0,1 @ F,0,0,1,0,0,0,1 @ F,0,0,1,0,0,0,1 @ F,0,0,1,0,0,0,1 @ F,0,0,1,0,0,0,1 @ F,0,0,1,0,0,0,1 @ F,0,0,1,0,0,0,1 @ F,0,0,1,0,0,0,1 @ F,0,0,1,0,0,0,1 @ F,0,0,1,0,0,0,1 @ F,0,0,1,0,1.7602026,0,1"
       radius="0"
       unit="px"
       method="auto"
       mode="F"
       chamfer_steps="1"
       flexible="false"
       use_knot_distance="true"
       apply_no_radius="true"
       apply_with_radius="true"
       only_selected="false"
       hide_knots="false" /><inkscape:path-effect
       effect="bspline"
       id="path-effect1"
       is_visible="true"
       lpeversion="1.3"
       weight="33.333333"
       steps="2"
       helper_size="0"
       apply_no_weight="true"
       apply_with_weight="true"
       only_selected="false"
       uniform="false" /><rect
       x="161.81329"
       y="185.60937"
       width="295.0713"
       height="244.07972"
       id="rect3" /><inkscape:path-effect
       effect="bspline"
       id="path-effect1-2"
       is_visible="true"
       lpeversion="1.3"
       weight="33.333333"
       steps="2"
       helper_size="0"
       apply_no_weight="true"
       apply_with_weight="true"
       only_selected="false"
       uniform="false" /><rect
       x="105.58392"
       y="117.66884"
       width="373.12738"
       height="299.52417"
       id="rect5-6" /><rect
       x="27"
       y="188"
       width="413"
       height="353"
       id="rect7-7" /></defs><g
     inkscape:label="Layer 1"
     inkscape:groupmode="layer"
     id="layer1"><path
       style="baseline-shift:baseline;display:inline;overflow:visible;vector-effect:none;stroke-linecap:round;stroke-miterlimit:13.6;paint-order:markers stroke fill;enable-background:accumulate;stop-color:#000000;stop-opacity:1;opacity:1;stroke:none"
       d="m 50.660156,11.636719 c -2.201706,0 -4.019205,0.753079 -5.328125,1.875 -1.308919,1.12192 -2.12528,2.554583 -2.65625,3.919922 -1.06194,2.730678 -1.041015,5.373046 -1.041015,5.373046 v 36.595704 c -0.343331,0.160573 -10.240235,4.888983 -10.240235,18 v 12.263671 c 0,8.032718 2.921637,13.707718 5.789063,18.007818 2.867425,4.30009 5.442045,7.3491 5.601562,9.73437 0.06364,0.95168 0.169538,2.28645 0.580078,3.55469 0.205271,0.63412 0.483117,1.27026 0.992188,1.83789 0.509071,0.56762 1.352238,1.02929 2.25,1.0293 h 40.117187 c 1.646035,0 3.033528,-1.04523 3.681641,-2.25 0.648113,-1.20478 0.8892,-2.53305 1.164062,-3.88282 0.549725,-2.69953 1.126721,-5.31855 3.097657,-6.74609 1.363434,-0.98753 2.31978,-2.64278 3.357422,-4.95703 1.037641,-2.31425 2.044569,-5.2895 2.937499,-8.798831 1.78587,-7.018662 3.10938,-16.167011 3.10938,-26.195312 0,-3.902929 -0.30542,-7.433439 -1.11914,-10.285156 -0.81373,-2.851718 -2.20588,-5.222307 -4.638677,-6.076172 -1.217412,-0.427289 -3.707874,-0.91974 -6.328125,0.224609 -0.971903,0.424462 -1.841382,1.208066 -2.615234,2.179688 -0.400362,-1.077 -0.919952,-2.13641 -1.798828,-3.035157 -1.295188,-1.32447 -3.240157,-2.203125 -5.667969,-2.203125 -3.573813,0 -5.909022,2.088405 -7.326172,4.339844 -0.477724,-1.626852 -1.219163,-3.306048 -2.523438,-4.658203 -1.36801,-1.418232 -3.384613,-2.396484 -5.875,-2.396484 -2.519098,0 -4.542889,0.816692 -5.978515,2.066406 -0.213299,0.185677 -0.32956,0.42096 -0.517578,0.621094 V 22.804687 c 0,0 0.02069,-2.642408 -1.041016,-5.373046 -0.530854,-1.36532 -1.347559,-2.797969 -2.65625,-3.919922 -1.308691,-1.121953 -3.12478,-1.875 -5.326172,-1.875 z m 0,3.050781 c 1.547712,0 2.541617,0.45267 3.341797,1.138672 0.80018,0.686001 1.390454,1.665651 1.796875,2.710937 0.812843,2.090573 0.833984,4.267578 0.833984,4.267578 v 38.634766 h 0.0039 c 4.14e-4,0.0054 0,0.113281 0,0.113281 l 3.046875,-0.113281 v -0.572266 c -0.01919,-0.580079 -0.04513,-2.360107 0.621093,-4.359375 0.392015,-1.176393 1.001987,-2.272373 1.898438,-3.052734 0.896451,-0.780361 2.080761,-1.318359 3.976562,-1.318359 1.75006,0 2.813752,0.567119 3.679688,1.464843 0.865936,0.897725 1.483339,2.207807 1.869141,3.595704 0.771602,2.775793 0.603515,5.667968 0.603515,5.667968 L 75.375,63.091797 c 0,0 0.198412,-2.185981 1.173828,-4.308594 0.975416,-2.122613 2.410221,-3.931641 5.355469,-3.931641 1.748534,0 2.73493,0.51677 3.486328,1.285157 0.751398,0.768386 1.249418,1.894134 1.529297,3.113281 0.559758,2.438295 0.214844,5.021484 0.214844,5.021484 h 0.0078 c -9.91e-4,0.08001 -0.02344,0.135719 -0.02344,0.216797 l 3.033203,0.21875 c 0,0 0.01286,-0.199245 0.01563,-0.21875 0,-0.02016 0.0039,-0.03074 0.0039,-0.05078 0.01277,-4.647065 1.498348,-6.110075 3.035156,-6.78125 1.543438,-0.67407 3.637322,-0.301508 4.095703,-0.140625 1.057995,0.371335 2.035878,1.642021 2.718746,4.035156 0.68288,2.393135 1,5.710383 1,9.447266 0,9.758926 -1.297409,18.690595 -3.015621,25.443359 -0.859106,3.376382 -1.825329,6.209954 -2.763672,8.302734 -0.938342,2.09278 -1.961505,3.44337 -2.363281,3.73438 -3.120514,2.26017 -3.752374,5.93549 -4.296875,8.60937 -0.27225,1.33694 -0.549437,2.46515 -0.861328,3.04492 -0.31189,0.57977 -0.327767,0.64649 -0.996094,0.64649 H 46.607422 c -0.01962,0 0.09477,0.0663 0.01953,-0.0176 -0.07523,-0.0839 -0.236013,-0.35311 -0.361328,-0.74024 -0.25063,-0.77424 -0.378719,-1.94133 -0.4375,-2.82031 -0.270487,-4.0446 -3.38845,-7.14519 -6.107422,-11.22265 -2.718972,-4.07747 -5.275391,-9.00799 -5.275391,-16.314458 V 77.400391 c 0,-8.875043 4.798542,-13.028162 7.189454,-14.546875 v 13.300781 a 1.524955,1.524955 0 0 0 1.52539,1.52539 1.524955,1.524955 0 0 0 1.523438,-1.52539 l 0.002,-53.34961 c 0,0 0.01904,-2.177044 0.832031,-4.267578 0.406497,-1.045266 0.998448,-2.024903 1.798828,-2.710937 0.80038,-0.686034 1.79559,-1.138672 3.34375,-1.138672 z"
       id="path2" /><text
       xml:space="preserve"
       transform="scale(0.26458333)"
       id="text1"
       style="font-size:167.3px;font-family:Arial;-inkscape-font-specification:Arial;text-align:start;writing-mode:lr-tb;direction:ltr;white-space:pre;shape-inside:url(#rect4);display:inline;fill:none;stroke:none;stroke-width:7.55905;stroke-linecap:round;stroke-miterlimit:13.6;paint-order:markers stroke fill" /><path
       style="font-size:167.3px;font-family:Arial;-inkscape-font-specification:Arial;white-space:pre;stroke:none;stroke-width:0;stroke-linecap:round;stroke-miterlimit:13.6;paint-order:markers stroke fill"
       d="m 81.078419,338.69622 v -28.673 H 29.123926 v -13.47876 l 54.650245,-77.60498 h 12.00835 v 77.60498 h 16.174509 v 13.47876 H 95.782521 v 28.673 z m 0,-42.15176 v -53.99673 l -37.49546,53.99673 z"
       id="text4"
       transform="matrix(0.26275389,0,0,0.26275389,49.198548,19.050104)"
       aria-label="4" /></g></svg>
