<?xml version="1.0" encoding="UTF-8" standalone="no"?>
<!-- Created with Inkscape (http://www.inkscape.org/) -->

<svg
   width="512"
   height="512"
   viewBox="0 0 135.46666 135.46667"
   version="1.1"
   id="svg1"
   inkscape:version="1.4.2 (ebf0e940d0, 2025-05-08)"
   sodipodi:docname="E065.svg"
   xml:space="preserve"
   xmlns:inkscape="http://www.inkscape.org/namespaces/inkscape"
   xmlns:sodipodi="http://sodipodi.sourceforge.net/DTD/sodipodi-0.dtd"
   xmlns="http://www.w3.org/2000/svg"
   xmlns:svg="http://www.w3.org/2000/svg"><sodipodi:namedview
     id="namedview1"
     pagecolor="#ffffff"
     bordercolor="#000000"
     borderopacity="0.25"
     inkscape:showpageshadow="2"
     inkscape:pageopacity="0.0"
     inkscape:pagecheckerboard="0"
     inkscape:deskcolor="#d1d1d1"
     inkscape:document-units="mm"
     inkscape:zoom="1"
     inkscape:cx="110.5"
     inkscape:cy="216"
     inkscape:window-width="1175"
     inkscape:window-height="1052"
     inkscape:window-x="0"
     inkscape:window-y="26"
     inkscape:window-maximized="0"
     inkscape:current-layer="layer1"
     showgrid="false"><inkscape:grid
       id="grid6"
       units="mm"
       originx="0"
       originy="0"
       spacingx="0.99999995"
       spacingy="1"
       empcolor="#0099e5"
       empopacity="0.30196078"
       color="#0099e5"
       opacity="0.14901961"
       empspacing="5"
       enabled="true"
       visible="false" /></sodipodi:namedview><defs
     id="defs1"><rect
       x="189"
       y="269"
       width="216"
       height="206"
       id="rect8" /><rect
       x="27"
       y="188"
       width="413"
       height="353"
       id="rect7" /><rect
       x="176.15695"
       y="289"
       width="152.84305"
       height="173.25157"
       id="rect4" /><rect
       x="187.38329"
       y="173.94826"
       width="166.17009"
       height="175.36248"
       id="rect6" /><rect
       x="207.18228"
       y="221.32442"
       width="103.23759"
       height="94.045199"
       id="rect2" /><rect
       x="159.75889"
       y="149.20253"
       width="211.11867"
       height="193.34506"
       id="rect1" /><rect
       x="105.58392"
       y="117.66884"
       width="373.12738"
       height="299.52416"
       id="rect5" /><inkscape:path-effect
       effect="fillet_chamfer"
       id="path-effect7"
       is_visible="true"
       lpeversion="1"
       nodesatellites_param="F,0,0,1,0,1.8173645,0,1 @ F,0,0,1,0,0,0,1 @ F,0,0,1,0,0,0,1 @ F,0,0,1,0,0,0,1 @ F,0,0,1,0,0,0,1 @ F,0,0,1,0,0,0,1 @ F,0,0,1,0,0,0,1 @ F,0,0,1,0,0,0,1 @ F,0,0,1,0,0,0,1 @ F,0,0,1,0,0,0,1 @ F,0,0,1,0,0,0,1 @ F,0,0,1,0,1.7602026,0,1"
       radius="0"
       unit="px"
       method="auto"
       mode="F"
       chamfer_steps="1"
       flexible="false"
       use_knot_distance="true"
       apply_no_radius="true"
       apply_with_radius="true"
       only_selected="false"
       hide_knots="false" /><inkscape:path-effect
       effect="bspline"
       id="path-effect1"
       is_visible="true"
       lpeversion="1.3"
       weight="33.333333"
       steps="2"
       helper_size="0"
       apply_no_weight="true"
       apply_with_weight="true"
       only_selected="false"
       uniform="false" /><rect
       x="161.81329"
       y="185.60937"
       width="295.0713"
       height="244.07972"
       id="rect3" /><inkscape:path-effect
       effect="bspline"
       id="path-effect1-2"
       is_visible="true"
       lpeversion="1.3"
       weight="33.333333"
       steps="2"
       helper_size="0"
       apply_no_weight="true"
       apply_with_weight="true"
       only_selected="false"
       uniform="false" /><rect
       x="105.58392"
       y="117.66884"
       width="373.12738"
       height="299.52417"
       id="rect5-6" /><rect
       x="27"
       y="188"
       width="413"
       height="353"
       id="rect7-7" /></defs><g
     inkscape:label="Layer 1"
     inkscape:groupmode="layer"
     id="layer1"><text
       xml:space="preserve"
       transform="matrix(0.3025363,0,0,0.3025363,-23.76079,-10.748346)"
       id="text1"
       style="font-size:167.3px;font-family:Arial;-inkscape-font-specification:Arial;text-align:start;writing-mode:lr-tb;direction:ltr;white-space:pre;shape-inside:url(#rect4);display:inline;fill:none;stroke:none;stroke-width:7.55905;stroke-linecap:round;stroke-miterlimit:13.6;paint-order:markers stroke fill" /><path
       style="baseline-shift:baseline;display:inline;overflow:visible;vector-effect:none;stroke-linecap:round;stroke-linejoin:bevel;stroke-miterlimit:13.6;paint-order:markers fill stroke;enable-background:accumulate;stop-color:#000000;stop-opacity:1;opacity:1;stroke:none"
       d="m 70.476562,12.90625 c -3.573646,0.134427 -6.149191,1.926632 -7.451171,4.289062 -0.987802,1.792358 -1.270577,3.792485 -1.363282,5.759766 -0.380559,-1.219129 -0.84062,-2.444353 -1.599609,-3.548828 -1.716723,-2.498163 -4.929041,-4.18893 -9.220703,-3.464844 -3.918154,0.661069 -6.131201,3.597041 -6.970703,6.63086 -0.839502,3.033819 -0.681552,6.305269 -0.560547,8.771484 0.161476,3.29107 1.226541,14.533518 2.257812,25.117187 0.545468,5.597994 0.687506,6.957953 1.070313,10.785157 -1.341918,-2.802343 -2.751165,-5.635727 -4.335938,-8.082032 -1.657549,-2.558645 -3.497061,-4.760299 -5.84375,-6.054687 -2.346688,-1.294388 -5.27371,-1.462761 -8.134765,-0.05469 -1.950784,0.960082 -3.338361,2.527434 -4.027344,4.367188 -0.688983,1.839754 -0.747655,3.883355 -0.464844,6.048828 0.565623,4.330946 2.517371,9.281333 4.796875,14.503906 1.74358,3.994715 3.807423,8.70662 5.832031,12.619141 3.855326,7.450356 2.798785,5.933951 4.25,10.29102 1.153816,3.46416 2.359359,8.62568 4.025391,13.01562 0.833016,2.19497 1.772116,4.2117 3.009766,5.80664 1.23765,1.59494 2.951455,2.86328 5.044922,2.86328 h 40.822265 c 1.741358,0 3.303378,-0.71576 4.392578,-1.80859 1.0892,-1.09283 1.782624,-2.4727 2.355469,-3.9668 1.145691,-2.9882 1.821812,-6.56237 2.957032,-9.78711 2.19961,-6.24829 2.94794,-6.06987 3.79687,-8.080076 0.84894,-2.010202 1.09458,-4.763567 2.0918,-16.041015 0.73435,-8.304597 4.04631,-32.115297 4.56641,-40.619141 0.20375,-3.331426 -1.1221,-5.692033 -2.71485,-6.949219 -1.59275,-1.257186 -3.29796,-1.537445 -3.91601,-1.626953 0.18887,0.02736 -0.12552,-0.02975 -0.38672,-0.06836 -0.2612,-0.03861 -0.60789,-0.07552 -1.01758,-0.08203 -0.81937,-0.01302 -1.90224,0.09981 -3.04492,0.601562 -1.312848,0.576468 -2.575557,1.760903 -3.595704,3.537109 0.150064,-2.185368 0.432669,-5.32555 0.472656,-6.310546 0.06576,-1.619802 0.481608,-4.960289 -0.273437,-8.144532 -0.377523,-1.592121 -1.075578,-3.207005 -2.378906,-4.472656 -1.303329,-1.265651 -3.186836,-2.081681 -5.5,-2.207031 -3.774066,-0.204516 -6.570207,1.408788 -8.011719,3.832031 -0.556932,0.936227 -0.850251,1.999541 -1.144531,3.0625 -0.09359,-1.876376 -0.34145,-3.931386 -1.332032,-5.898437 -1.331659,-2.644351 -4.21941,-4.794022 -8.453125,-4.634766 z m 0.13086,3.484375 c 3.163724,-0.119007 4.336883,0.99085 5.207031,2.71875 0.870148,1.7279 1.085285,4.237897 1.068359,6.216797 -0.04016,4.696441 0.691407,41.683594 0.691407,41.683594 l 3.484375,0.04102 c 0,0 0.392138,-9.119821 0.802734,-18.441406 0.205298,-4.660792 0.415237,-9.37263 0.583984,-13.017578 0.08437,-1.822474 0.159087,-3.379479 0.216797,-4.527344 0.05771,-1.147865 0.111073,-1.995094 0.113282,-2.017578 0.279953,-2.849739 0.731214,-5.37766 1.628906,-6.886719 0.897692,-1.509058 1.95763,-2.288258 4.826172,-2.132812 1.647349,0.08927 2.576694,0.565135 3.257812,1.226562 0.681118,0.661428 1.139832,1.610644 1.416016,2.775391 0.552368,2.329494 0.259468,5.28018 0.18164,7.197265 -0.212531,5.23517 -2.761718,36.824219 -2.761718,36.824219 l 3.460937,0.414063 c 0,0 3.871479,-24.305582 4.015625,-25.191407 0.686228,-4.21709 2.149609,-5.434597 3.294919,-5.9375 0.57266,-0.251451 1.1358,-0.315749 1.58594,-0.308593 0.22507,0.0036 0.41859,0.02531 0.56445,0.04687 0.14586,0.02156 0.10573,0.02625 0.39649,0.06836 0.40369,0.05846 1.44395,0.272799 2.2539,0.912109 0.80996,0.639311 1.54468,1.576998 1.39649,4 -0.48836,7.984953 -3.79741,31.895194 -4.56055,40.525391 -0.99569,11.260199 -1.40172,13.975929 -1.83008,14.990234 -0.42835,1.014306 -1.58201,1.771296 -3.873043,8.279298 -1.25177,3.55583 -1.959633,7.18244 -2.923828,9.69727 -0.482098,1.25741 -1.025114,2.20493 -1.570313,2.75195 -0.545199,0.54701 -1.01689,0.7832 -1.921875,0.7832 H 50.791016 c -0.722363,0 -1.41907,-0.39252 -2.289063,-1.51367 -0.869993,-1.12115 -1.73653,-2.87714 -2.505859,-4.9043 -1.538658,-4.05431 -2.72955,-9.13884 -3.976563,-12.88281 -1.367692,-4.106297 -0.5718,-3.271544 -4.46289,-10.791016 -1.943046,-3.754903 -3.990568,-8.419396 -5.732422,-12.410156 -2.242981,-5.138895 -4.062565,-9.941937 -4.535157,-13.560547 -0.236295,-1.809304 -0.131075,-3.289635 0.275391,-4.375 0.406466,-1.085365 1.0459,-1.843345 2.300781,-2.460937 2.028711,-0.998434 3.395739,-0.856808 4.910157,-0.02148 1.514417,0.835324 3.102876,2.583065 4.601562,4.896485 2.997373,4.626839 5.610921,11.311114 8.419922,16.453125 L 51.0625,76.5 c 0,0 -0.992957,-9.801406 -2.023438,-20.376953 -1.03048,-10.575547 -2.103384,-22.042583 -2.246093,-24.951172 -0.119158,-2.428568 -0.18749,-5.404258 0.439453,-7.669922 0.626942,-2.265664 1.574013,-3.681771 4.189453,-4.123047 3.294303,-0.555812 4.648755,0.376692 5.765625,2.001953 1.11687,1.625262 1.687002,4.202631 2,6.484375 1.793156,13.072087 3.580078,39.234375 3.580078,39.234375 l 3.484375,-0.167968 -1.210937,-42.207032 c -0.06258,-2.182763 0.230203,-4.379988 1.039062,-5.847656 0.808859,-1.467668 1.920194,-2.388257 4.527344,-2.486328 z"
       id="path7" /><path
       d="m 196.02529,388.0824 14.7041,-1.96055 q 2.53238,12.49849 8.5774,18.05337 6.12671,5.47319 14.86748,5.47319 10.37456,0 17.48154,-7.18867 7.18867,-7.18867 7.18867,-17.8083 0,-10.12949 -6.61684,-16.66465 -6.61685,-6.61684 -16.82803,-6.61684 -4.16616,0 -10.37456,1.63379 l 1.63379,-12.90694 q 1.47041,0.16338 2.36899,0.16338 9.39429,0 16.90972,-4.90137 7.51543,-4.90136 7.51543,-15.11255 0,-8.08725 -5.47319,-13.39707 -5.4732,-5.30981 -14.13228,-5.30981 -8.57739,0 -14.29565,5.3915 -5.71827,5.39151 -7.35205,16.17452 l -14.70411,-2.61407 q 2.69576,-14.78579 12.25342,-22.87304 9.55767,-8.16895 23.77163,-8.16895 9.80274,0 18.05337,4.24785 8.25064,4.16616 12.58018,11.43653 4.41123,7.27036 4.41123,15.4393 0,7.7605 -4.16616,14.13228 -4.16617,6.37178 -12.33511,10.12949 10.61963,2.45068 16.50127,10.21118 5.88164,7.67881 5.88164,19.27871 0,15.68438 -11.43652,26.63077 -11.43653,10.86469 -28.91807,10.86469 -15.76607,0 -26.22232,-9.39428 -10.37456,-9.39429 -11.84497,-24.34346 z"
       id="text7"
       style="font-size:167.3px;font-family:Arial;-inkscape-font-specification:Arial;white-space:pre;stroke:none;stroke-width:0;stroke-linecap:round;stroke-linejoin:bevel;stroke-miterlimit:13.6;paint-order:markers fill stroke"
       transform="matrix(0.26458333,0,0,0.26458333,9.2030676,-2.79738)"
       aria-label="3" /></g></svg>
