<?xml version="1.0" encoding="UTF-8" standalone="no"?>
<!-- Created with Inkscape (http://www.inkscape.org/) -->

<svg
   width="512"
   height="512"
   viewBox="0 0 135.46666 135.46667"
   version="1.1"
   id="svg1"
   inkscape:version="1.4.2 (ebf0e940d0, 2025-05-08)"
   sodipodi:docname="E069.svg"
   xml:space="preserve"
   xmlns:inkscape="http://www.inkscape.org/namespaces/inkscape"
   xmlns:sodipodi="http://sodipodi.sourceforge.net/DTD/sodipodi-0.dtd"
   xmlns="http://www.w3.org/2000/svg"
   xmlns:svg="http://www.w3.org/2000/svg"><sodipodi:namedview
     id="namedview1"
     pagecolor="#ffffff"
     bordercolor="#000000"
     borderopacity="0.25"
     inkscape:showpageshadow="2"
     inkscape:pageopacity="0.0"
     inkscape:pagecheckerboard="0"
     inkscape:deskcolor="#d1d1d1"
     inkscape:document-units="mm"
     inkscape:zoom="1"
     inkscape:cx="110.5"
     inkscape:cy="216"
     inkscape:window-width="1175"
     inkscape:window-height="1052"
     inkscape:window-x="0"
     inkscape:window-y="26"
     inkscape:window-maximized="0"
     inkscape:current-layer="layer1"
     showgrid="false"><inkscape:grid
       id="grid6"
       units="mm"
       originx="0"
       originy="0"
       spacingx="0.99999995"
       spacingy="1"
       empcolor="#0099e5"
       empopacity="0.30196078"
       color="#0099e5"
       opacity="0.14901961"
       empspacing="5"
       enabled="true"
       visible="false" /></sodipodi:namedview><defs
     id="defs1"><rect
       x="25"
       y="72"
       width="456"
       height="384"
       id="rect9" /><rect
       x="189"
       y="269"
       width="216"
       height="206"
       id="rect8" /><rect
       x="27"
       y="188"
       width="413"
       height="353"
       id="rect7" /><rect
       x="176.15695"
       y="289"
       width="152.84305"
       height="173.25157"
       id="rect4" /><rect
       x="187.38329"
       y="173.94826"
       width="166.17009"
       height="175.36248"
       id="rect6" /><rect
       x="207.18228"
       y="221.32442"
       width="103.23759"
       height="94.045199"
       id="rect2" /><rect
       x="159.75889"
       y="149.20253"
       width="211.11867"
       height="193.34506"
       id="rect1" /><rect
       x="105.58392"
       y="117.66884"
       width="373.12738"
       height="299.52416"
       id="rect5" /><inkscape:path-effect
       effect="fillet_chamfer"
       id="path-effect7"
       is_visible="true"
       lpeversion="1"
       nodesatellites_param="F,0,0,1,0,1.8173645,0,1 @ F,0,0,1,0,0,0,1 @ F,0,0,1,0,0,0,1 @ F,0,0,1,0,0,0,1 @ F,0,0,1,0,0,0,1 @ F,0,0,1,0,0,0,1 @ F,0,0,1,0,0,0,1 @ F,0,0,1,0,0,0,1 @ F,0,0,1,0,0,0,1 @ F,0,0,1,0,0,0,1 @ F,0,0,1,0,0,0,1 @ F,0,0,1,0,1.7602026,0,1"
       radius="0"
       unit="px"
       method="auto"
       mode="F"
       chamfer_steps="1"
       flexible="false"
       use_knot_distance="true"
       apply_no_radius="true"
       apply_with_radius="true"
       only_selected="false"
       hide_knots="false" /><inkscape:path-effect
       effect="bspline"
       id="path-effect1"
       is_visible="true"
       lpeversion="1.3"
       weight="33.333333"
       steps="2"
       helper_size="0"
       apply_no_weight="true"
       apply_with_weight="true"
       only_selected="false"
       uniform="false" /><rect
       x="161.81329"
       y="185.60937"
       width="295.0713"
       height="244.07972"
       id="rect3" /><inkscape:path-effect
       effect="bspline"
       id="path-effect1-2"
       is_visible="true"
       lpeversion="1.3"
       weight="33.333333"
       steps="2"
       helper_size="0"
       apply_no_weight="true"
       apply_with_weight="true"
       only_selected="false"
       uniform="false" /><rect
       x="105.58392"
       y="117.66884"
       width="373.12738"
       height="299.52417"
       id="rect5-6" /><rect
       x="27"
       y="188"
       width="413"
       height="353"
       id="rect7-7" /></defs><g
     inkscape:label="Layer 1"
     inkscape:groupmode="layer"
     id="layer1"><path
       style="font-size:108.745px;font-family:Arial;-inkscape-font-specification:Arial;letter-spacing:0px;word-spacing:0px;baseline-shift:baseline;white-space:pre;stroke:none;stroke-width:0;stroke-linecap:round;stroke-linejoin:bevel;stroke-miterlimit:13.6;paint-order:markers fill stroke"
       d="M 32.062053,155.77622 V 99.385993 h 8.601899 v 8.548797 q 3.292085,-6.00009 6.053188,-7.91162 2.814202,-1.911533 6.159385,-1.911533 4.831931,0 9.823156,3.079693 l -3.292085,8.86739 q -3.504477,-2.07083 -7.008955,-2.07083 -3.13279,0 -5.628403,1.91153 -2.495612,1.85844 -3.557575,5.20362 -1.592945,5.09742 -1.592945,11.15061 v 29.52257 z m 74.921477,-18.15957 9.87626,1.22126 q -2.33632,8.655 -8.655,13.43383 -6.31868,4.77883 -16.141837,4.77883 -12.371867,0 -19.646312,-7.59303 -7.221348,-7.64613 -7.221348,-21.39855 0,-14.2303 7.327544,-22.08883 7.327543,-7.858523 19.009135,-7.858523 11.309908,0 18.478158,7.699233 7.16824,7.69923 7.16824,21.66404 0,0.84957 -0.0531,2.54871 H 75.071548 q 0.530981,9.29218 5.256716,14.2303 4.725734,4.93813 11.787787,4.93813 5.256716,0 8.973589,-2.7611 3.71687,-2.76111 5.89389,-8.8143 z M 75.602529,122.1651 h 31.487201 q -0.63718,-7.11516 -3.61068,-10.67273 -4.566436,-5.52221 -11.840882,-5.52221 -6.58417,0 -11.097512,4.40715 -4.460244,4.40714 -4.938127,11.78779 z"
       id="text8"
       transform="matrix(0.54829648,0,0,0.54829648,0.19501534,-36.708022)"
       aria-label="re" /></g></svg>
