<?xml version="1.0" encoding="UTF-8" standalone="no"?>
<!-- Created with Inkscape (http://www.inkscape.org/) -->

<svg
   width="512"
   height="512"
   viewBox="0 0 135.46666 135.46667"
   version="1.1"
   id="svg1"
   inkscape:version="1.4.2 (ebf0e940d0, 2025-05-08)"
   sodipodi:docname="E075.svg"
   xml:space="preserve"
   xmlns:inkscape="http://www.inkscape.org/namespaces/inkscape"
   xmlns:sodipodi="http://sodipodi.sourceforge.net/DTD/sodipodi-0.dtd"
   xmlns="http://www.w3.org/2000/svg"
   xmlns:svg="http://www.w3.org/2000/svg"><sodipodi:namedview
     id="namedview1"
     pagecolor="#ffffff"
     bordercolor="#000000"
     borderopacity="0.25"
     inkscape:showpageshadow="2"
     inkscape:pageopacity="0.0"
     inkscape:pagecheckerboard="0"
     inkscape:deskcolor="#d1d1d1"
     inkscape:document-units="mm"
     inkscape:zoom="1"
     inkscape:cx="158.5"
     inkscape:cy="220"
     inkscape:window-width="1175"
     inkscape:window-height="1052"
     inkscape:window-x="0"
     inkscape:window-y="26"
     inkscape:window-maximized="0"
     inkscape:current-layer="layer1"
     showgrid="false"><inkscape:grid
       id="grid6"
       units="mm"
       originx="0"
       originy="0"
       spacingx="0.99999995"
       spacingy="1"
       empcolor="#0099e5"
       empopacity="0.30196078"
       color="#0099e5"
       opacity="0.14901961"
       empspacing="5"
       enabled="true"
       visible="false" /></sodipodi:namedview><defs
     id="defs1"><inkscape:path-effect
       effect="fillet_chamfer"
       id="path-effect7"
       is_visible="true"
       lpeversion="1"
       nodesatellites_param="F,0,0,1,0,1.8173645,0,1 @ F,0,0,1,0,0,0,1 @ F,0,0,1,0,0,0,1 @ F,0,0,1,0,0,0,1 @ F,0,0,1,0,0,0,1 @ F,0,0,1,0,0,0,1 @ F,0,0,1,0,0,0,1 @ F,0,0,1,0,0,0,1 @ F,0,0,1,0,0,0,1 @ F,0,0,1,0,0,0,1 @ F,0,0,1,0,0,0,1 @ F,0,0,1,0,1.7602026,0,1"
       radius="0"
       unit="px"
       method="auto"
       mode="F"
       chamfer_steps="1"
       flexible="false"
       use_knot_distance="true"
       apply_no_radius="true"
       apply_with_radius="true"
       only_selected="false"
       hide_knots="false" /><inkscape:path-effect
       effect="bspline"
       id="path-effect1"
       is_visible="true"
       lpeversion="1.3"
       weight="33.333333"
       steps="2"
       helper_size="0"
       apply_no_weight="true"
       apply_with_weight="true"
       only_selected="false"
       uniform="false" /><rect
       x="161.81329"
       y="185.60937"
       width="295.0713"
       height="244.07972"
       id="rect3" /><inkscape:path-effect
       effect="bspline"
       id="path-effect1-2"
       is_visible="true"
       lpeversion="1.3"
       weight="33.333333"
       steps="2"
       helper_size="0"
       apply_no_weight="true"
       apply_with_weight="true"
       only_selected="false"
       uniform="false" /></defs><g
     inkscape:label="Layer 1"
     inkscape:groupmode="layer"
     id="layer1"><path
       id="path2"
       style="stroke:none;stroke-width:0;stroke-miterlimit:13.6;paint-order:markers fill stroke"
       d="M 123.825,67.733336 A 56.091666,56.091666 0 0 1 67.733336,123.825 56.091666,56.091666 0 0 1 11.641669,67.733336 56.091666,56.091666 0 0 1 67.733336,11.641669 56.091666,56.091666 0 0 1 123.825,67.733336 Z" /><path
       id="path2-5"
       style="fill:#ffffff;stroke:none;stroke-width:0;stroke-miterlimit:13.6;paint-order:markers fill stroke"
       d="M 118.14494,67.733331 A 50.411604,50.411604 0 0 1 67.733329,118.14494 50.411604,50.411604 0 0 1 17.321723,67.733331 50.411604,50.411604 0 0 1 67.733329,17.321725 50.411604,50.411604 0 0 1 118.14494,67.733331 Z" /><path
       id="path2-0"
       style="stroke:none;stroke-width:0;stroke-miterlimit:13.6;paint-order:markers fill stroke"
       d="M 115.34376,67.733336 A 47.610429,47.610429 0 0 1 67.733335,115.34376 47.610429,47.610429 0 0 1 20.122906,67.733336 47.610429,47.610429 0 0 1 67.733335,20.122907 47.610429,47.610429 0 0 1 115.34376,67.733336 Z" /><g
       id="g4"
       transform="translate(1.8333333e-6,-2.5256957)"
       style="stroke:none"><path
         id="rect2"
         style="fill:#ffffff;stroke:none;stroke-width:0;stroke-miterlimit:13.6;paint-order:markers fill stroke"
         d="m 41.60202,39.576488 h 52.262624 c 2.555827,0 4.613406,2.05758 4.613406,4.613407 v 52.138272 c 0,2.555828 -2.057579,4.613403 -4.613406,4.613403 H 41.60202 c -2.555828,0 -4.613407,-2.057575 -4.613407,-4.613403 V 44.189895 c 0,-2.555827 2.057579,-4.613407 4.613407,-4.613407 z" /><path
         id="rect4"
         style="stroke:none;stroke-width:0;stroke-miterlimit:13.6;paint-order:markers fill stroke"
         d="m 57.679907,73.964966 h 20.106855 c 2.408934,0 4.348257,1.939323 4.348257,4.348257 v 12.291986 c 0,2.408935 -1.939323,4.348257 -4.348257,4.348257 H 57.679907 c -2.408934,0 -4.348257,-1.939322 -4.348257,-4.348257 V 78.313223 c 0,-2.408934 1.939323,-4.348257 4.348257,-4.348257 z" /><path
         id="rect4-6"
         style="stroke:none;stroke-width:0;stroke-miterlimit:13.6;paint-order:markers fill stroke"
         d="m 52.312522,45.646099 h 30.841615 c 2.88639,0 5.21009,2.3237 5.21009,5.21009 v 10.56882 c 0,2.88639 -2.3237,5.21009 -5.21009,5.21009 H 52.312522 c -2.88639,0 -5.21009,-2.3237 -5.21009,-5.21009 v -10.56882 c 0,-2.88639 2.3237,-5.21009 5.21009,-5.21009 z" /></g></g></svg>
