<?xml version="1.0" encoding="UTF-8" standalone="no"?>
<!-- Created with Inkscape (http://www.inkscape.org/) -->

<svg
   width="512"
   height="512"
   viewBox="0 0 135.46666 135.46667"
   version="1.1"
   id="svg1"
   inkscape:version="1.4.2 (ebf0e940d0, 2025-05-08)"
   sodipodi:docname="E077.svg"
   xml:space="preserve"
   xmlns:inkscape="http://www.inkscape.org/namespaces/inkscape"
   xmlns:sodipodi="http://sodipodi.sourceforge.net/DTD/sodipodi-0.dtd"
   xmlns="http://www.w3.org/2000/svg"
   xmlns:svg="http://www.w3.org/2000/svg"><sodipodi:namedview
     id="namedview1"
     pagecolor="#ffffff"
     bordercolor="#000000"
     borderopacity="0.25"
     inkscape:showpageshadow="2"
     inkscape:pageopacity="0.0"
     inkscape:pagecheckerboard="0"
     inkscape:deskcolor="#d1d1d1"
     inkscape:document-units="mm"
     inkscape:zoom="1"
     inkscape:cx="155.5"
     inkscape:cy="225"
     inkscape:window-width="1175"
     inkscape:window-height="1052"
     inkscape:window-x="0"
     inkscape:window-y="26"
     inkscape:window-maximized="0"
     inkscape:current-layer="layer1"
     showgrid="false"><inkscape:grid
       id="grid6"
       units="mm"
       originx="0"
       originy="0"
       spacingx="0.99999995"
       spacingy="1"
       empcolor="#0099e5"
       empopacity="0.30196078"
       color="#0099e5"
       opacity="0.14901961"
       empspacing="5"
       enabled="true"
       visible="false" /></sodipodi:namedview><defs
     id="defs1"><inkscape:path-effect
       effect="fillet_chamfer"
       id="path-effect7"
       is_visible="true"
       lpeversion="1"
       nodesatellites_param="F,0,0,1,0,1.8173645,0,1 @ F,0,0,1,0,0,0,1 @ F,0,0,1,0,0,0,1 @ F,0,0,1,0,0,0,1 @ F,0,0,1,0,0,0,1 @ F,0,0,1,0,0,0,1 @ F,0,0,1,0,0,0,1 @ F,0,0,1,0,0,0,1 @ F,0,0,1,0,0,0,1 @ F,0,0,1,0,0,0,1 @ F,0,0,1,0,0,0,1 @ F,0,0,1,0,1.7602026,0,1"
       radius="0"
       unit="px"
       method="auto"
       mode="F"
       chamfer_steps="1"
       flexible="false"
       use_knot_distance="true"
       apply_no_radius="true"
       apply_with_radius="true"
       only_selected="false"
       hide_knots="false" /><inkscape:path-effect
       effect="bspline"
       id="path-effect1"
       is_visible="true"
       lpeversion="1.3"
       weight="33.333333"
       steps="2"
       helper_size="0"
       apply_no_weight="true"
       apply_with_weight="true"
       only_selected="false"
       uniform="false" /><rect
       x="161.81329"
       y="185.60937"
       width="295.0713"
       height="244.07972"
       id="rect3" /><inkscape:path-effect
       effect="bspline"
       id="path-effect1-2"
       is_visible="true"
       lpeversion="1.3"
       weight="33.333333"
       steps="2"
       helper_size="0"
       apply_no_weight="true"
       apply_with_weight="true"
       only_selected="false"
       uniform="false" /></defs><g
     inkscape:label="Layer 1"
     inkscape:groupmode="layer"
     id="layer1"><g
       id="g8"
       transform="matrix(1.1282751,0,0,1.1282751,-20.889107,-55.171671)"
       style="stroke:none"><path
         id="path6"
         style="stroke:none;stroke-width:0;stroke-miterlimit:13.6;paint-order:markers fill stroke"
         d="M 123.22701,108.93177 A 44.680172,43.315105 0 0 1 78.546837,152.24688 44.680172,43.315105 0 0 1 33.866665,108.93177 44.680172,43.315105 0 0 1 78.546837,65.616665 44.680172,43.315105 0 0 1 123.22701,108.93177 Z" /><path
         id="path7"
         style="fill:#ffffff;stroke:none;stroke-width:0;stroke-miterlimit:13.6;paint-order:markers fill stroke"
         d="M 119.10168,107.18202 A 40.554844,37.460445 0 0 1 78.546837,144.64247 40.554844,37.460445 0 0 1 37.991993,107.18202 40.554844,37.460445 0 0 1 78.546837,69.721577 40.554844,37.460445 0 0 1 119.10168,107.18202 Z" /><path
         id="path7-4"
         style="stroke:none;stroke-width:0;stroke-miterlimit:13.6;paint-order:markers fill stroke"
         d="M 111.04857,104.57043 A 32.501732,30.267935 0 0 1 78.546837,134.83836 32.501732,30.267935 0 0 1 46.045105,104.57043 32.501732,30.267935 0 0 1 78.546837,74.302492 32.501732,30.267935 0 0 1 111.04857,104.57043 Z" /><path
         id="path7-4-6"
         style="fill:#ffffff;stroke:none;stroke-width:0;stroke-miterlimit:13.6;paint-order:markers fill stroke"
         d="M 108.61414,104.3558 A 30.067303,28.000826 0 0 1 78.546837,132.35662 30.067303,28.000826 0 0 1 48.479534,104.3558 30.067303,28.000826 0 0 1 78.546837,76.354971 30.067303,28.000826 0 0 1 108.61414,104.3558 Z" /></g></g></svg>
