<?xml version="1.0" encoding="UTF-8" standalone="no"?>
<!-- Created with Inkscape (http://www.inkscape.org/) -->

<svg
   width="512"
   height="512"
   viewBox="0 0 135.46666 135.46667"
   version="1.1"
   id="svg1"
   inkscape:version="1.4.2 (ebf0e940d0, 2025-05-08)"
   sodipodi:docname="E078.svg"
   xml:space="preserve"
   xmlns:inkscape="http://www.inkscape.org/namespaces/inkscape"
   xmlns:sodipodi="http://sodipodi.sourceforge.net/DTD/sodipodi-0.dtd"
   xmlns="http://www.w3.org/2000/svg"
   xmlns:svg="http://www.w3.org/2000/svg"><sodipodi:namedview
     id="namedview1"
     pagecolor="#ffffff"
     bordercolor="#000000"
     borderopacity="0.25"
     inkscape:showpageshadow="2"
     inkscape:pageopacity="0.0"
     inkscape:pagecheckerboard="0"
     inkscape:deskcolor="#d1d1d1"
     inkscape:document-units="mm"
     inkscape:zoom="1"
     inkscape:cx="162.5"
     inkscape:cy="276"
     inkscape:window-width="1175"
     inkscape:window-height="1052"
     inkscape:window-x="0"
     inkscape:window-y="26"
     inkscape:window-maximized="1"
     inkscape:current-layer="layer1"
     showgrid="false"><inkscape:grid
       id="grid6"
       units="mm"
       originx="0"
       originy="0"
       spacingx="0.99999995"
       spacingy="1"
       empcolor="#0099e5"
       empopacity="0.30196078"
       color="#0099e5"
       opacity="0.14901961"
       empspacing="5"
       enabled="true"
       visible="false" /></sodipodi:namedview><defs
     id="defs1"><inkscape:path-effect
       effect="fillet_chamfer"
       id="path-effect7"
       is_visible="true"
       lpeversion="1"
       nodesatellites_param="F,0,0,1,0,1.8173645,0,1 @ F,0,0,1,0,0,0,1 @ F,0,0,1,0,0,0,1 @ F,0,0,1,0,0,0,1 @ F,0,0,1,0,0,0,1 @ F,0,0,1,0,0,0,1 @ F,0,0,1,0,0,0,1 @ F,0,0,1,0,0,0,1 @ F,0,0,1,0,0,0,1 @ F,0,0,1,0,0,0,1 @ F,0,0,1,0,0,0,1 @ F,0,0,1,0,1.7602026,0,1"
       radius="0"
       unit="px"
       method="auto"
       mode="F"
       chamfer_steps="1"
       flexible="false"
       use_knot_distance="true"
       apply_no_radius="true"
       apply_with_radius="true"
       only_selected="false"
       hide_knots="false" /><inkscape:path-effect
       effect="bspline"
       id="path-effect1"
       is_visible="true"
       lpeversion="1.3"
       weight="33.333333"
       steps="2"
       helper_size="0"
       apply_no_weight="true"
       apply_with_weight="true"
       only_selected="false"
       uniform="false" /><rect
       x="161.81329"
       y="185.60937"
       width="295.0713"
       height="244.07972"
       id="rect3" /><inkscape:path-effect
       effect="bspline"
       id="path-effect1-2"
       is_visible="true"
       lpeversion="1.3"
       weight="33.333333"
       steps="2"
       helper_size="0"
       apply_no_weight="true"
       apply_with_weight="true"
       only_selected="false"
       uniform="false" /></defs><g
     inkscape:label="Layer 1"
     inkscape:groupmode="layer"
     id="layer1"><path
       style="baseline-shift:baseline;display:inline;overflow:visible;vector-effect:none;stroke-linecap:round;stroke-linejoin:round;stroke-miterlimit:13.6;paint-order:markers stroke fill;enable-background:accumulate;stop-color:#000000;stop-opacity:1;opacity:1;stroke:none"
       d="m 78.935547,40.888672 a 3.306,3.306 0 0 0 -1.865235,1.710937 3.306,3.306 0 0 0 1.59961,4.392578 C 89.683363,52.127839 95.626266,64.180985 92.996094,76.044922 90.365922,87.908858 79.884409,96.320312 67.732422,96.320312 55.580434,96.320313 45.100874,87.908859 42.470703,76.044922 39.840532,64.180985 45.783434,52.127839 56.796875,46.992187 A 3.306,3.306 0 0 0 58.396484,42.599609 3.306,3.306 0 0 0 54.003906,41 c -13.789215,6.430016 -21.281347,21.622497 -17.988281,36.476562 3.293067,14.854067 16.502081,25.457028 31.716797,25.457028 15.214715,0 28.425682,-10.602962 31.71875,-25.457028 C 102.74424,62.622496 95.252106,47.430017 81.462891,41 a 3.306,3.306 0 0 0 -2.527344,-0.111328 z"
       id="path3" /><path
       style="baseline-shift:baseline;display:inline;overflow:visible;vector-effect:none;stroke-linecap:round;stroke-linejoin:round;stroke-miterlimit:13.6;paint-order:markers stroke fill;enable-background:accumulate;stop-color:#000000;stop-opacity:1;opacity:1;stroke:none"
       d="m 67.732422,29.888672 a 3.306,3.306 0 0 0 -3.304688,3.304687 v 33.814453 a 3.306,3.306 0 0 0 3.304688,3.304688 3.306,3.306 0 0 0 3.30664,-3.304688 V 33.193359 a 3.306,3.306 0 0 0 -3.30664,-3.304687 z"
       id="path4" /><path
       style="baseline-shift:baseline;display:inline;overflow:visible;vector-effect:none;stroke-miterlimit:13.6;paint-order:markers fill stroke;enable-background:accumulate;stop-color:#000000;stop-opacity:1;opacity:1;stroke:none"
       d="m 28.095703,15.042969 c -7.764713,0 -14.111328,6.346615 -14.111328,14.111328 V 106.3125 c 0,7.76472 6.346616,14.11133 14.111328,14.11133 h 79.275387 c 7.76471,0 14.11133,-6.34661 14.11133,-14.11133 V 29.154297 c 0,-7.764712 -6.34661,-14.111328 -14.11133,-14.111328 z m 0,6.162109 h 79.275387 c 4.45755,0 7.94922,3.491669 7.94922,7.949219 V 106.3125 c 0,4.45756 -3.49167,7.94922 -7.94922,7.94922 H 28.095703 c -4.457551,0 -7.949219,-3.49166 -7.949219,-7.94922 V 29.154297 c 0,-4.45755 3.491668,-7.949219 7.949219,-7.949219 z"
       id="rect1" /></g></svg>
